<?xml version="1.0" encoding="UTF-8"?>
<svg id="_圖層_2" data-name="圖層 2" xmlns="http://www.w3.org/2000/svg" viewBox="0 0 136.72 136.08">
  <defs>
    <style>
      .cls-1 {
        fill: #fff;
      }

      .cls-2 {
        fill: #d5ff03;
      }

      .cls-3 {
        fill: #030619;
      }

      .cls-4 {
        fill: none;
        stroke: #030619;
        stroke-linecap: round;
        stroke-linejoin: round;
        stroke-width: 5.21px;
      }
    </style>
  </defs>
  <g id="_圖層_2-2" data-name="圖層 2">
    <g>
      <g>
        <path class="cls-2" d="M71.34,133.73c-8.22,0-14.16-6.55-16.7-9.96-6.23,3.74-11.69,5.64-16.25,5.64-3.86,0-7.11-1.31-9.65-3.89-4.25-4.32-5.27-11.11-5.52-14.48-3.9-.88-12.41-3.91-18.51-14.08-2.54-4.24-3.03-7.8-1.46-10.58,1.75-3.1,5.53-4.18,8.43-4.53-1.55-5.5-2.33-11.2-2.33-16.98C9.35,30.39,37.39,2.35,71.86,2.35s62.51,28.04,62.51,62.51c0,17.01-7.01,33.4-19.28,45.15.07,3.79-1,6.9-3.18,9.26-2.95,3.18-7.75,4.79-14.26,4.79h0c-3.65,0-6.97-.51-8.81-.87-5.57,7-11.45,10.54-17.5,10.54Z"/>
        <path class="cls-1" d="M71.86,4.69c33.23,0,60.17,26.94,60.17,60.17,0,17.47-7.44,33.19-19.33,44.18.79,10.48-7.77,12.67-15.05,12.67-5.21,0-9.77-1.12-9.77-1.12-6.07,8.1-11.72,10.8-16.54,10.8-9.65,0-16.03-10.8-16.03-10.8-7.27,4.69-12.76,6.47-16.92,6.47-13.21,0-12.89-18.02-12.89-18.02,0,0-11.32-.87-18.77-13.29-6.69-11.15,5.15-11.72,7.64-11.72.28,0,.45,0,.45,0-2.02-6.02-3.12-12.47-3.12-19.17C11.7,31.63,38.63,4.69,71.86,4.69M71.86,0C36.1,0,7,29.1,7,64.86c0,5.14.6,10.21,1.78,15.15-2.85.73-5.87,2.22-7.57,5.21-2.02,3.57-1.52,7.93,1.49,12.95,5.75,9.59,13.6,13.29,18.33,14.71.47,3.97,1.87,10.06,6.03,14.29,2.95,3.01,6.87,4.6,11.32,4.6s9.77-1.62,15.69-4.94c3.28,3.87,9.28,9.26,17.26,9.26,6.46,0,12.66-3.48,18.44-10.34,2.01.33,4.83.67,7.87.67,7.2,0,12.57-1.86,15.98-5.54,2.41-2.59,3.68-5.9,3.8-9.86,12.28-12.14,19.28-28.84,19.28-46.15C136.72,29.1,107.63,0,71.86,0h0Z"/>
        <path class="cls-3" d="M71.86,4.69c33.23,0,60.17,26.94,60.17,60.17,0,17.47-7.44,33.19-19.33,44.18.79,10.48-7.77,12.67-15.05,12.67-5.21,0-9.77-1.12-9.77-1.12-6.07,8.1-11.72,10.8-16.54,10.8-9.65,0-16.03-10.8-16.03-10.8-7.27,4.69-12.76,6.47-16.92,6.47-13.21,0-12.89-18.02-12.89-18.02,0,0-11.32-.87-18.77-13.29-6.69-11.15,5.15-11.72,7.64-11.72.28,0,.45,0,.45,0-2.02-6.02-3.12-12.47-3.12-19.17C11.7,31.63,38.63,4.69,71.86,4.69M71.86,2.43C37.44,2.43,9.44,30.44,9.44,64.86c0,5.81.79,11.53,2.36,17.06-2.89.34-6.71,1.39-8.46,4.5-1.56,2.75-1.07,6.28,1.46,10.49,6.12,10.2,14.66,13.19,18.52,14.05.23,3.34,1.24,10.16,5.5,14.49,2.52,2.57,5.75,3.87,9.59,3.87,4.56,0,10.03-1.91,16.27-5.67,2.5,3.37,8.45,9.99,16.68,9.99,6.03,0,11.9-3.55,17.46-10.55,1.83.35,5.17.88,8.85.88,6.49,0,11.27-1.6,14.2-4.76,2.18-2.35,3.24-5.45,3.16-9.23,12.27-11.74,19.28-28.12,19.28-45.11,0-34.42-28-62.42-62.42-62.42h0Z"/>
      </g>
      <path class="cls-4" d="M37.09,72.33s-.55,7.69,9.39,3.55c0,0,7.18,10.21,13.8,5.52"/>
      <path class="cls-3" d="M42.35,48.29c-1.43-6.27-5.93-10.58-10.05-9.65-4.12.94-6.31,6.78-4.88,13.05.94,4.11,3.19,7.36,5.79,8.86l7.22-1.07c2.1-2.4,2.95-6.68,1.92-11.2Z"/>
      <path class="cls-3" d="M77.54,54.78c5.99-4.36,13.17-4.7,16.05-.76,2.87,3.94.34,10.68-5.65,15.04-3.92,2.86-8.35,3.98-11.75,3.31l-5.46-6.4c0-3.67,2.5-8.04,6.82-11.18Z"/>
    </g>
  </g>
</svg>