<?xml version="1.0" encoding="UTF-8"?>
<svg id="_圖層_2" data-name="圖層 2" xmlns="http://www.w3.org/2000/svg" viewBox="0 0 175.58 272.54">
  <defs>
    <style>
      .cls-1 {
        fill: #fff;
      }

      .cls-2 {
        fill: #d5ff03;
      }

      .cls-3 {
        fill: #030619;
      }

      .cls-4 {
        fill: none;
        stroke: #030619;
        stroke-linecap: round;
        stroke-linejoin: round;
        stroke-width: 6.93px;
      }
    </style>
  </defs>
  <g id="_圖層_2-2" data-name="圖層 2">
    <g>
      <g>
        <path class="cls-2" d="M55.34,269.54c-2.71,0-4.83-.82-6.28-2.43-1.54-1.71-2.15-4.14-1.83-7.22,1.25-11.84-4.2-17.42-4.95-18.12C15.99,222.78.26,207.53,3.41,156.9c2.81-45.21,49.33-73.63,59.44-79.28-.36-2.59-1.25-8.1-3.3-18.13-1.65-8.06-10.23-9.76-17.13-9.76-3.24,0-5.65.4-5.67.4-.17.03-.34.04-.5.04-1.38,0-2.61-.95-2.92-2.33-.35-1.55.56-3.11,2.09-3.55,22.46-6.46,17.98-29.36,16.04-36.3-.12-.38-.23-.76-.34-1.14-.46-1.57.42-3.21,1.98-3.7.3-.1.61-.14.91-.14,1.25,0,2.42.79,2.84,2.03,0,0,.15.45.38,1.25,7.19,23.16,21.51,25.67,27.34,25.67,1.63,0,2.64-.19,2.65-.19.19-.04.38-.06.57-.06,1.38,0,2.62.96,2.93,2.35.35,1.59-.62,3.16-2.19,3.56-15.51,3.88-13.37,16.92-13.08,18.39l3.53,17.02c3.14-.59,6.56-.89,10.21-.89,24.73,0,57.76,13.65,75.8,44.13,21.97,37.14-10.3,94.99-11.68,97.43-.29.52-.69.93-1.15,1.2.32,1.8,2.11,7,11.2,20.16,3.94,5.7,4.92,10.54,2.9,14.39-2.6,4.96-9.69,7.37-21.68,7.37-9.53,0-19.4-1.53-22.94-2.13-10.16,7.79-18.82,11.58-26.45,11.58-6.14,0-10.37-2.51-13.18-4.17-.94-.56-2.22-1.32-2.73-1.39-.74.33-1.87.89-3.18,1.55-5.79,2.9-14.54,7.27-20.76,7.27Z"/>
        <path class="cls-1" d="M54,6s.14.41.34,1.14c-.12-.38-.23-.75-.34-1.14M54.34,7.14c7.73,24.96,23.44,27.82,30.22,27.82,2.01,0,3.24-.25,3.24-.25-18.9,4.72-15.29,21.91-15.29,21.91l4.15,20.02c3.66-.98,7.9-1.49,12.52-1.49,23,0,55.45,12.62,73.22,42.66,21.34,36.07-11.71,94.43-11.71,94.43,0,0-.05,0-.13,0-.93,0-5.98.96,10.33,24.56,9.58,13.86-2.84,17.05-16.31,17.05-11.48,0-23.73-2.32-23.73-2.32-11.56,9.08-19.7,11.76-25.67,11.76-8.6,0-12.68-5.56-15.96-5.56-.36,0-.71.07-1.06.22-3.81,1.65-15.83,8.6-22.83,8.6-3.4,0-5.62-1.64-5.12-6.34,1.51-14.35-6.04-20.77-6.04-20.77C17.74,220.35,3.38,205.62,6.41,157.08c3.02-48.53,59.68-77.81,59.68-77.81,0,0-.38-4.72-3.59-20.4-2.13-10.41-13.01-12.16-20.07-12.16-3.58,0-6.18.45-6.18.45,25.68-7.39,19.73-34.17,18.09-40.03M87.79,34.71h0M54,0c-.6,0-1.21.09-1.81.28-3.11.98-4.87,4.27-3.96,7.41.11.39.23.77.34,1.15.61,2.19,2.36,9.5,1.05,16.68-1.49,8.21-6.41,13.41-15.05,15.89-3.06.88-4.9,4-4.19,7.11.63,2.77,3.1,4.66,5.84,4.66.34,0,.68-.03,1.02-.09,0,0,2.2-.36,5.16-.36,8.42,0,13.19,2.48,14.19,7.36,1.62,7.89,2.5,12.95,2.97,15.96-5.35,3.15-15.68,9.77-26.27,19.52C13.12,114.15,1.75,135.29.42,156.71c-1.52,24.5,1.11,41.59,8.54,55.43,6.75,12.57,16.63,21.25,31.38,31.91.84.86,4.95,5.66,3.91,15.52-.42,3.97.45,7.18,2.58,9.55,1.41,1.56,4.02,3.42,8.51,3.42,6.39,0,14.42-3.75,22.1-7.59.69-.35,1.33-.67,1.88-.93.37.21.8.46,1.16.67,3.09,1.83,7.75,4.59,14.71,4.59,8.04,0,16.97-3.74,27.23-11.41,4.38.71,13.4,1.96,22.16,1.96,13.21,0,21.16-2.94,24.33-8.98,2.58-4.91,1.54-10.8-3.09-17.49-7.05-10.2-9.47-15.29-10.3-17.58.14-.19.27-.39.39-.6,1.42-2.51,34.5-61.82,11.65-100.44-18.64-31.5-52.79-45.6-78.38-45.6h0c-2.74,0-5.36.16-7.84.48l-2.95-14.2c-.37-1.97-1.53-11.74,10.75-14.87.41-.09.81-.23,1.19-.41,2.56-1.18,4.05-4.03,3.38-6.86-.66-2.75-3.07-4.62-5.77-4.62-.42,0-.85.05-1.29.14,0,0-.02,0-.02,0-.18.03-.93.14-2.06.14-6.41,0-18.1-3.06-24.46-23.52-.22-.8-.39-1.28-.42-1.37-.85-2.5-3.18-4.08-5.68-4.08h0Z"/>
        <path class="cls-3" d="M54,6s.14.41.34,1.14c-.12-.38-.23-.75-.34-1.14M54.34,7.14c7.73,24.96,23.44,27.82,30.22,27.82,2.01,0,3.24-.25,3.24-.25-18.9,4.72-15.29,21.91-15.29,21.91l4.15,20.02c3.66-.98,7.9-1.49,12.52-1.49,23,0,55.45,12.62,73.22,42.66,21.34,36.07-11.71,94.43-11.71,94.43,0,0-.05,0-.13,0-.93,0-5.98.96,10.33,24.56,9.58,13.86-2.84,17.05-16.31,17.05-11.48,0-23.73-2.32-23.73-2.32-11.56,9.08-19.7,11.76-25.67,11.76-8.6,0-12.68-5.56-15.96-5.56-.36,0-.71.07-1.06.22-3.81,1.65-15.83,8.61-22.83,8.61-3.4,0-5.62-1.64-5.12-6.34,1.51-14.35-6.04-20.77-6.04-20.77C17.74,220.35,3.38,205.62,6.41,157.08c3.02-48.53,59.68-77.81,59.68-77.81,0,0-.38-4.72-3.59-20.4-2.13-10.41-13.01-12.16-20.07-12.16-3.58,0-6.18.45-6.18.45,25.68-7.39,19.73-34.17,18.09-40.03M87.79,34.71h0M54,3c-.3,0-.6.05-.9.14-1.56.49-2.44,2.14-1.98,3.7.11.39.23.77.34,1.15,1.93,6.94,6.41,29.84-16.04,36.3-1.53.44-2.45,2-2.1,3.55.32,1.38,1.55,2.33,2.92,2.33.17,0,.34-.01.51-.04.02,0,2.42-.4,5.67-.4,6.9,0,15.48,1.69,17.13,9.76,2.06,10.03,2.94,15.54,3.3,18.14-4.37,2.46-15.75,9.33-27.51,20.15-19.61,18.05-30.65,38.49-31.93,59.13-1.49,23.91,1.04,40.51,8.19,53.82,6.51,12.12,16.19,20.57,30.69,31.04.68.63,6.2,6.21,4.94,18.12-.32,3.08.29,5.52,1.83,7.22,1.45,1.61,3.56,2.43,6.28,2.43,6.22,0,14.97-4.38,20.76-7.27,1.31-.65,2.44-1.22,3.18-1.55.5.07,1.78.83,2.73,1.39,2.8,1.66,7.04,4.17,13.18,4.17,7.63,0,16.3-3.79,26.45-11.58,3.54.61,13.41,2.13,22.94,2.13,11.98,0,19.07-2.41,21.68-7.37,2.02-3.85,1.04-8.69-2.9-14.39-9.1-13.16-10.89-18.36-11.2-20.16.46-.27.85-.68,1.15-1.2.34-.61,8.5-15.11,14.13-34.32,7.56-25.81,6.71-47.63-2.45-63.11-18.03-30.48-51.06-44.13-75.8-44.13-3.64,0-7.06.3-10.21.89l-3.53-17.03s-.74-3.8.56-7.92c1.65-5.27,5.85-8.79,12.46-10.45.35-.08.67-.22.96-.4.06-.04.12-.08.18-.12,0,0,0,0,0,0,0,0,0,0,0,0,.73-.55,1.2-1.42,1.2-2.4,0-1.55-1.18-2.83-2.69-2.98-.1-.01-.21-.02-.31-.02s-.21,0-.31.02c-.11.01-.21.03-.32.05-.15.03-1.12.19-2.61.19-5.83,0-20.15-2.5-27.34-25.67-.21-.76-.36-1.21-.38-1.25-.42-1.25-1.59-2.04-2.84-2.04h0Z"/>
      </g>
      <polyline class="cls-4" points="128.03 117.8 111.79 134.04 133.31 136.69"/>
      <path class="cls-4" d="M50.22,132.91s13.41-3.02,24.55,6.42"/>
      <path class="cls-4" d="M93.66,157.08s4.72-7.55,9.06,0"/>
    </g>
  </g>
</svg>