<?xml version="1.0" encoding="UTF-8"?>
<svg id="_喇뒨쏛_2" data-name="喇뒨쏛 2" xmlns="http://www.w3.org/2000/svg" viewBox="0 0 164.69 142.63">
  <defs>
    <style>
      .cls-1 {
        stroke: #000;
        stroke-width: 4.12px;
      }

      .cls-1, .cls-2 {
        fill: none;
        stroke-miterlimit: 10;
      }

      .cls-3 {
        fill: #231815;
      }

      .cls-4 {
        fill: #fff;
      }

      .cls-5 {
        fill: #d5ff03;
      }

      .cls-2 {
        stroke: #fff;
        stroke-width: 9.89px;
      }

      .cls-6 {
        fill: #4858f9;
      }
    </style>
  </defs>
  <g id="_喇뒨쏛_3" data-name="喇뒨쏛 3">
    <g>
      <g>
        <polygon class="cls-5" points="120.67 4.94 44.03 4.94 5.71 71.31 44.03 137.68 120.67 137.68 158.98 71.31 120.67 4.94"/>
        <polygon class="cls-2" points="120.67 4.94 44.03 4.94 5.71 71.31 44.03 137.68 120.67 137.68 158.98 71.31 120.67 4.94"/>
        <polygon class="cls-1" points="120.67 4.94 44.03 4.94 5.71 71.31 44.03 137.68 120.67 137.68 158.98 71.31 120.67 4.94"/>
      </g>
      <g>
        <polygon class="cls-6" points="90.79 111.71 90.79 80.54 74 80.54 74 111.71 49.1 111.71 49.1 29.05 74 29.05 74 57.59 90.79 57.59 90.79 29.05 115.59 29.05 115.59 111.71 90.79 111.71"/>
        <path class="cls-3" d="M110.35,34.29v72.18h-14.32v-31.17h-27.27v31.17h-14.42V34.29h14.42v28.54h27.27v-28.54h14.32M120.84,23.81h-35.28v28.54h-6.31v-28.54h-35.38v93.15h35.38v-31.17h6.31v31.17h35.28V23.81h0Z"/>
        <path class="cls-4" d="M110.35,34.29v72.18h-14.32v-31.17h-27.27v31.17h-14.42V34.29h14.42v28.54h27.27v-28.54h14.32M115.12,29.53h-23.85v28.54h-17.74v-28.54h-23.95v81.71h23.95v-31.17h17.74v31.17h23.85V29.53h0Z"/>
      </g>
    </g>
  </g>
</svg>