<?xml version="1.0" encoding="UTF-8"?>
<svg id="_圖層_2" data-name="圖層 2" xmlns="http://www.w3.org/2000/svg" xmlns:xlink="http://www.w3.org/1999/xlink" viewBox="0 0 908.97 771.36">
  <defs>
    <style>
      .cls-1 {
        fill: #231815;
      }

      .cls-2 {
        filter: url(#outer-glow-2);
      }

      .cls-3 {
        fill: #fff;
      }

      .cls-4 {
        fill: #d5ff03;
      }

      .cls-5 {
        filter: url(#outer-glow-1);
      }

      .cls-6 {
        filter: url(#outer-glow-3);
      }
    </style>
    <filter id="outer-glow-1" x="348.11" y="-26.2" width="215" height="260" filterUnits="userSpaceOnUse">
      <feOffset dx="0" dy="0"/>
      <feGaussianBlur result="blur" stdDeviation="11.12"/>
      <feFlood flood-color="#000" flood-opacity=".96"/>
      <feComposite in2="blur" operator="in"/>
      <feComposite in="SourceGraphic"/>
    </filter>
    <filter id="outer-glow-2" x="688.11" y="-34.2" width="255" height="256" filterUnits="userSpaceOnUse">
      <feOffset dx="0" dy="0"/>
      <feGaussianBlur result="blur-2" stdDeviation="11.12"/>
      <feFlood flood-color="#000" flood-opacity=".96"/>
      <feComposite in2="blur-2" operator="in"/>
      <feComposite in="SourceGraphic"/>
    </filter>
    <filter id="outer-glow-3" x="-12.89" y="-20.2" width="252" height="253" filterUnits="userSpaceOnUse">
      <feOffset dx="0" dy="0"/>
      <feGaussianBlur result="blur-3" stdDeviation="11.12"/>
      <feFlood flood-color="#000" flood-opacity=".96"/>
      <feComposite in2="blur-3" operator="in"/>
      <feComposite in="SourceGraphic"/>
    </filter>
  </defs>
  <g id="_圖層_3" data-name="圖層 3">
    <g class="cls-5">
      <path class="cls-3" d="M483.69,178.03l.17,18.26c.02,2.01-1.27,3.51-3.05,3.6-2.07.1-3.41-1.45-3.42-3.59l-.06-15.92c-3.58-4.75-5.53-10.18-5.74-16.05-.26-4.06,1.01-7.73,3.57-10.99l-7.17-11.24h-54.39s-.01-6.43-.01-6.43h32.1s0-16.05,0-16.05h-9.24c-12.59.13-22.81-9.88-22.86-22.48,0-1.87,1.41-3.13,3.19-3.23l13.28.06c7.82.04,14.75,4.21,18.83,10.92,4.18-6.85,11.31-10.93,19.26-10.95l12.9-.02c1.5,0,3.1,1.23,3.13,2.84.19,8.69-4.57,16.26-12.16,20.44,5.52-.9,10.86.62,13.82,5.22l8.52,13.25,11.96-.04c1.29,0,3.53-1.41,3.54-2.76l.08-13.23c-1.93-.18-3.23-1.43-3.23-3.24l-.02-18.87c0-1.98,1.04-3.45,3.26-3.63l-.1-13.24c0-1.31-2.13-2.79-3.66-2.79h-114.2c-1.64,0-4.06,1.14-4.06,2.87v52.06c0,1.74,2.54,2.85,3.93,2.85l15.48.03v6.43s-16.3-.09-16.3-.09c-4.91-.03-9.51-4.45-9.51-9.55l-.03-50.98c0-5.48,4.55-10,9.99-10.01l31.14-.05-2.13-12.79-3.72-.03c-1.77-.02-3.19-1.39-3.19-3.19v-12.86c0-1.78,1.4-3.2,3.22-3.2h28.89s0-12.83,0-12.83l-9.66-.03c-8.9-.03-15.96-7.16-16.03-16.02-.01-1.88,1.41-3.16,3.19-3.24l12.87.03c5.11.01,9.7,2.38,12.83,6.48,3.14-4.1,7.71-6.47,12.83-6.48l12.87-.03c1.78.08,3.21,1.36,3.19,3.23-.07,8.87-7.12,15.99-16.03,16.02l-9.65.03v12.83s9.64,0,9.64,0l-.02,6.42h-41.72s0,6.42,0,6.42h57.75s.03-6.42.03-6.42h-9.55s0-6.42,0-6.42h12.76c1.78.01,3.2,1.42,3.2,3.21v12.85c0,2.06-1.67,3.24-3.58,3.24h-3.34s-2.13,12.81-2.13,12.81l31.54.07c5.29.01,9.59,4.76,9.6,9.92l.04,27.18,7.26,7.33c3.73,3.77,5.57,8.77,5.57,14.1v30.11c-.01,1.41-.62,3.11-1.37,4.23l-11.45,17.16-.04,15.13c0,1.84-1.44,3.11-3.02,3.19-1.76.09-3.38-1.23-3.38-3.19l-.02-14.5c.1-1.3.36-3.03,1.07-4.11l11.77-17.69.02-30.73c0-3.88-1.58-7.2-4.28-9.78l-2.11-2.01-.11,14.62c-.04,5.26-4.78,9.52-9.89,9.56l-7.87.07,3.33,5.22c.96,1.51.31,3.51-1.01,4.32-1.41.86-3.42.67-4.42-.91l-15.47-24.21c-1.98-3.09-5.78-4.03-8.77-2.28-3.19,1.87-4.17,5.94-2.13,9.14l12.05,18.84c.89,1.39.54,3.21-.73,4.22-2.15,1.7-3.42,4.13-3.38,6.89.08,5.41,1.82,10.31,5.71,14.66ZM445.1,20.02c-1.68-4.32-5.33-6.35-9.43-6.38l-8.68.03c1.52,4.01,5.2,6.45,9.46,6.43l8.65-.08ZM462.39,20c3.98-.03,7.06-2.88,8.42-6.3l-8.68-.05c-4.26-.03-7.95,2.38-9.45,6.44l9.72-.08ZM468.67,71.45l2.11-12.84h-43.77s2.14,12.85,2.14,12.85h39.52ZM445.35,113.14c-1.76-7.83-8.19-12.63-15.7-12.8l-9.32.02c1.61,7.54,8.03,12.71,15.71,12.86l9.31-.08ZM461.77,113.18c7.68-.01,14.1-5.32,15.7-12.82l-9.32.02c-7.67.02-14.1,5.32-15.7,12.82l9.32-.02ZM452.12,135.69l11.88-.03c-3.18-6.38-.9-13.51,5.13-17.12-2.62.53-4.88.93-7.36,1.12l-9.66-.06v16.08Z"/>
      <path class="cls-3" d="M400.75,90.72l-.02,3.22c-.01,1.85-1.44,3.11-3.02,3.19-1.74.09-3.39-1.22-3.39-3.19v-6.45c0-1.78,1.41-3.19,3.19-3.19h6.45c1.85,0,3.11,1.46,3.19,3.02.09,1.76-1.21,3.37-3.18,3.38h-3.22Z"/>
      <path class="cls-3" d="M503.5,93.76c0,2.05-1.45,3.28-3.04,3.37-1.76.1-3.37-1.22-3.38-3.19l-.02-3.22-3.22-.02c-1.84-.01-3.11-1.44-3.19-3.02-.09-1.75,1.21-3.38,3.19-3.38h6.45c1.78,0,3.19,1.41,3.19,3.19v6.27Z"/>
      <path class="cls-3" d="M404.17,129.22l-6.65.04c-1.78.01-3.19-1.45-3.19-3.19v-6.46c0-1.85,1.46-3.1,3.02-3.18,1.77-.09,3.37,1.19,3.38,3.18l.02,3.23,2.82-.03c1.87-.02,3.26,1.02,3.55,2.7.27,1.57-.8,3.69-2.95,3.7Z"/>
      <path class="cls-3" d="M494.03,129.26c-2.05,0-3.29-1.45-3.37-3.04-.1-1.77,1.21-3.36,3.19-3.38l3.24-.03-.04-2.81c-.03-2.02,1.21-3.47,3.06-3.58,1.71-.1,3.39,1.18,3.39,3.18v6.45c0,1.78-1.42,3.18-3.19,3.19h-6.27Z"/>
    </g>
    <g class="cls-2">
      <path class="cls-3" d="M812.04,187.29h-55.6s-1.39-1.24-1.39-1.24c-8.76-21.98-13.44-45.12-13.74-68.97l-9.02-.02c-1.5,0-2.59-1.03-2.68-2.55v-13.91c.02-1.53,1.29-2.48,2.66-2.49l7.76-.06c-8.33-15.7-16.11-36.27-18.02-53.76l-.32-1.47.14-8.39c.23-2.62,1.02-5.41,2.3-7.8,2.23-4.15,6.73-5.79,11.3-4.84,9.28,1.94,18.78,10.47,25.78,17.47,2.45-10.7,5.27-21.19,10.94-30.45,3.61-5.88,9.56-11,15.95-7.86,10.58,5.19,16.23,26.37,18.85,38.31,7.86-8.12,26.25-24.18,35.31-14.98,1.97,2,2.98,4.62,3.62,7.51,13.39-2.14,26.55,4.28,33.14,15.74,6.81,11.85,5.56,26.54-3.38,37.13l3.78,3.86,3.42-3.46c.96-.97,2.59-1.05,3.65.01l19.36,19.34c4.07,4.07,4.18,10.27.19,14.31-3.65,3.7-10,4.14-13.96.19l-19.75-19.71c-.94-.94-1.01-2.61-.14-3.49l3.59-3.62-3.82-3.75c-11.28,9.57-27.55,10.37-39.73,1.7l-4.07,8.03,7.99.02c1.38,0,2.45,1.2,2.45,2.56v13.78c0,1.32-1.06,2.59-2.44,2.59l-9.27.04c-.31,23.73-4.95,46.84-13.67,68.78l-1.19,1.42ZM786.67,24.39l.02,20.72,4.09-3.1c1.14-.87,2.8-.52,3.52.46.87,1.18.66,2.77-.51,3.67l-7.13,5.52.06,13.49,4.04-3.05c1.17-.88,2.76-.58,3.54.47.87,1.18.66,2.74-.53,3.66l-7.1,5.51.02,13.55,4.27-3.25c1.06-.81,2.72-.31,3.4.59.8,1.04.68,2.69-.41,3.53l-7.28,5.66v6.28s16.3,0,16.3,0c1.81-6.94,2.63-13.74,2.68-20.98.13-19.73-3.46-45.83-12.47-63.34-2.79-5.42-7.65-11.26-12.48-7.36-6.04,4.87-10.06,16.67-12.25,24.68-4.11,15.07-5.96,30.41-5.92,46.06.16,7.22.82,13.95,2.7,20.94h16.33s-.02-17.73-.02-17.73l-7.08-5.47c-1.24-.96-1.45-2.47-.67-3.62.74-1.08,2.36-1.49,3.47-.66l4.26,3.16.02-13.49-7.1-5.49c-1.23-.95-1.44-2.48-.65-3.62.72-1.03,2.35-1.49,3.45-.66l4.3,3.25-.02-13.57-7.11-5.5c-1.18-.92-1.37-2.51-.59-3.6.67-.94,2.36-1.45,3.38-.68l4.33,3.26v-9.54c.02-1.61,1.38-2.66,2.81-2.52,1.24.12,2.3,1.13,2.31,2.76ZM759.92,98.07c-2.23-10.03-2.91-19.19-2.4-28.92.39-8.09,1.18-15.74,2.53-23.78-6.93-7.18-15.74-15.79-25.25-18.56-10.61-2.27-8.31,16.58-6.29,25.7,3.54,16.01,9.4,31.1,17.39,45.58l14.03-.03ZM822.48,98.04l5.66-11.39c-8.31-8.37-11.51-20.08-8.28-31.87,2.71-9.84,10.59-18.43,21.01-21.79-.4-2.19-1.06-4.35-2.86-5.58-6.66-4.56-24.2,11.64-29.88,17.99,2.82,17.49,4.22,35.18.13,52.72l14.21-.09ZM878.24,63.72c0-15.05-12.2-27.25-27.25-27.25s-27.25,12.2-27.25,27.25,12.2,27.25,27.25,27.25,27.25-12.2,27.25-27.25ZM884.64,90.41l-6.95,6.96,3.14,3.13,6.95-6.96-3.14-3.13ZM895.81,115.35c2.06,2.04,5.4,1.27,6.9-.59,1.5-1.86,1.55-4.65-.32-6.51l-11.03-11.05-6.91,6.89,11.36,11.26ZM833.49,103.22h-98.76v8.73h98.76v-8.73ZM796.61,134.11c2.72,1.51,4.87,3.32,7.01,5.29,3.11,2.85,7.67,3.26,10.79.12l6.35-4.94c.58-5.85.92-11.6,1.07-17.51h-75.4c.11,5.95.46,11.85,1.07,17.59l6.09,4.65c3.05,3.29,7.76,3.08,10.97.13,2.47-2.26,4.98-4.35,8.05-5.86,7.51-3.69,16.53-3.61,24.01.53ZM793.25,148.12c7.42,6.97,15.16,8.87,24.54,5.21l2.04-11.47-4.97,3.73c-8.02,2.97-11.52.35-17.05-4.44-8-6.93-19.78-6.81-27.68.21-5.43,4.83-9.24,7.12-16.86,4.18l-4.9-3.69,2.11,11.52c6.07,2.47,12.77,2.43,18.49-.75,2.28-1.26,4.34-2.96,6.23-4.7,5.25-4.83,12.75-4.79,18.05.19ZM809.21,182.17c2.88-7.74,5.26-15.13,7.14-22.86-7.01,1.73-13.57,1.01-19.57-2.1-2.56-1.64-4.8-3.39-7.13-5.33-3.02-3.15-7.92-3.28-10.94-.12l-6.89,5.21c-6.1,3.37-12.88,4.06-19.98,2.35,1.98,7.98,4.34,15.35,7.19,22.85h50.19Z"/>
    </g>
    <g class="cls-6">
      <path class="cls-3" d="M38.15,195.71l-14.57-14.52c-3.44-3.43-3.47-9.25.03-12.76l29.26-29.26c2.67-2.67,6.4-2.86,9.82-1.79l12.02-11.89c-20.87-30.58-14.77-71.85,13.32-95.24,28.37-23.63,70.18-21.77,96.29,4.27,26.03,25.94,28.17,67.58,4.83,96.06-23.21,28.31-64.55,34.79-95.55,13.83l-11.8,11.81c1.28,3.62,1,7.55-1.85,10.39l-28.67,28.69c-3.55,3.56-9.3,4.21-13.12.4ZM77.65,151.37l13.35-13.36c1.09-1.09,2.91-1.23,4.04-.39,27.77,20.53,66.25,15.77,88.36-10.02,22.18-25.88,20.58-64.58-3.55-88.59-24.13-24.01-62.78-25.4-88.59-3.14-25.6,22.08-30.25,60.47-9.84,88.12.85,1.16.74,2.91-.41,4.06l-13.36,13.4,10,9.92ZM46.69,190.88l28.94-28.96c.76-.76.75-2.77.04-3.48l-14.45-14.47c-1.08-1.08-2.88-1.28-4.06-.1l-28.86,28.86c-1.23,1.23-1.21,3-.01,4.19l14.03,14.05c1.27,1.27,2.95,1.35,4.38-.08Z"/>
      <path class="cls-3" d="M190.08,85.2c0,31.05-25.17,56.22-56.22,56.22s-56.22-25.17-56.22-56.22,25.17-56.22,56.22-56.22,56.22,25.17,56.22,56.22ZM183.76,85.21c0-27.55-22.34-49.89-49.89-49.89s-49.89,22.34-49.89,49.89,22.34,49.89,49.89,49.89,49.89-22.34,49.89-49.89Z"/>
      <path class="cls-3" d="M147.38,84.83c0,7.89-6.39,14.28-14.28,14.28s-14.28-6.39-14.28-14.28,6.39-14.28,14.28-14.28,14.28,6.39,14.28,14.28ZM141.05,84.83c0-4.39-3.56-7.95-7.95-7.95s-7.95,3.56-7.95,7.95,3.56,7.95,7.95,7.95,7.95-3.56,7.95-7.95Z"/>
      <path class="cls-3" d="M113.13,98.04c0,4.93-4,8.93-8.93,8.93s-8.93-4-8.93-8.93,4-8.93,8.93-8.93,8.93,4,8.93,8.93ZM106.8,98.03c0-1.43-1.16-2.58-2.58-2.58s-2.58,1.16-2.58,2.58,1.16,2.58,2.58,2.58,2.58-1.16,2.58-2.58Z"/>
      <path class="cls-3" d="M150.93,119.63c0,4.93-4,8.93-8.93,8.93s-8.93-4-8.93-8.93,4-8.93,8.93-8.93,8.93,4,8.93,8.93ZM144.58,119.63c0-1.42-1.15-2.58-2.58-2.58s-2.58,1.15-2.58,2.58,1.15,2.58,2.58,2.58,2.58-1.15,2.58-2.58Z"/>
      <path class="cls-3" d="M160.87,56.33c0,4.93-4,8.93-8.93,8.93s-8.93-4-8.93-8.93,4-8.93,8.93-8.93,8.93,4,8.93,8.93ZM154.52,56.3c0-1.42-1.15-2.57-2.57-2.57s-2.57,1.15-2.57,2.57,1.15,2.57,2.57,2.57,2.57-1.15,2.57-2.57Z"/>
      <path class="cls-3" d="M174.65,90.79c0,4.93-4,8.93-8.93,8.93s-8.93-4-8.93-8.93,4-8.93,8.93-8.93,8.93,4,8.93,8.93ZM168.3,90.77c0-1.42-1.15-2.58-2.58-2.58s-2.58,1.15-2.58,2.58,1.15,2.58,2.58,2.58,2.58-1.15,2.58-2.58Z"/>
      <path class="cls-3" d="M121.17,59.89c0,4.93-3.99,8.92-8.92,8.92s-8.92-3.99-8.92-8.92,3.99-8.92,8.92-8.92,8.92,3.99,8.92,8.92ZM114.84,59.87c0-1.43-1.16-2.58-2.58-2.58s-2.58,1.16-2.58,2.58,1.16,2.58,2.58,2.58,2.58-1.16,2.58-2.58Z"/>
      <circle class="cls-3" cx="105.61" cy="76.94" r="3.35"/>
      <circle class="cls-3" cx="158.73" cy="105.46" r="3.35"/>
      <path class="cls-3" d="M133.72,60.72c-1.35,1.35-3.28,1.55-4.71.24-1.32-1.21-1.24-3.34.19-4.76,1.35-1.33,3.2-1.42,4.5-.33,1.52,1.29,1.42,3.44.02,4.84Z"/>
      <circle class="cls-3" cx="158.1" cy="73.97" r="3.35"/>
      <path class="cls-3" d="M122.37,110.97c-1.4,1.47-3.41,1.62-4.78.27-1.24-1.22-1.26-3.27.16-4.69,1.32-1.32,3.3-1.48,4.52-.4,1.44,1.27,1.49,3.36.1,4.82Z"/>
    </g>
    <g>
      <path class="cls-4" d="M471.1,746.11h-87.62c-4.02,0-6.48-3.56-6.48-7.25l.02-68.25c0-3.82,3.16-6.76,6.79-6.76h12.42c3.52-.01,6.45-1.81,7.98-4.93l5.8-11.81h34.75s4.87,10.63,4.87,10.63c1.5,3.27,4.17,6.05,8.08,6.07l12.83.04c3.7.01,6.88,2.78,6.88,6.78v69.09c-.01,3.12-2.86,6.39-6.31,6.39ZM463.39,672.7c0-3.01-2.44-5.45-5.45-5.45s-5.45,2.44-5.45,5.45,2.44,5.45,5.45,5.45,5.45-2.44,5.45-5.45ZM457.96,702.07c0-16.98-13.77-30.75-30.75-30.75s-30.75,13.77-30.75,30.75,13.77,30.75,30.75,30.75,30.75-13.77,30.75-30.75Z"/>
      <path class="cls-3" d="M444.76,647.1l4.87,10.63c1.5,3.27,4.17,6.05,8.08,6.07l12.83.04c3.7.01,6.88,2.78,6.88,6.78v69.09c-.01,3.12-2.86,6.39-6.31,6.39h-87.62s0,0,0,0c-4.02,0-6.48-3.57-6.48-7.26l.02-68.25c0-3.82,3.17-6.76,6.79-6.76h12.42c3.52-.01,6.45-1.81,7.98-4.93l5.8-11.81h34.75M457.94,678.14c3.01,0,5.45-2.44,5.45-5.45s-2.44-5.45-5.45-5.45-5.45,2.44-5.45,5.45,2.44,5.45,5.45,5.45M427.2,732.82c16.98,0,30.75-13.77,30.75-30.75s-13.77-30.75-30.75-30.75-30.75,13.77-30.75,30.75,13.77,30.75,30.75,30.75M448.6,641.12h-3.84s-34.75,0-34.75,0h-3.72l-1.64,3.34-5.8,11.81c-.53,1.08-1.36,1.58-2.62,1.58h-12.42c-7.04.02-12.76,5.73-12.77,12.75l-.02,68.25c0,3.26,1.1,6.39,3.1,8.82,2.35,2.85,5.67,4.42,9.35,4.42h87.62c6.54,0,12.28-5.79,12.28-12.37v-69.09c.01-7.13-5.62-12.74-12.82-12.76l-12.83-.04c-1.29,0-2.22-1.62-2.66-2.58l-4.87-10.63-1.6-3.49h0ZM427.2,726.84c-13.66,0-24.77-11.11-24.77-24.77s11.11-24.77,24.77-24.77,24.77,11.11,24.77,24.77-11.11,24.77-24.77,24.77h0Z"/>
      <path class="cls-1" d="M444.76,647.1l4.87,10.63c1.5,3.27,4.17,6.05,8.08,6.07l12.83.04c3.7.01,6.88,2.78,6.88,6.78v69.09c-.01,3.12-2.86,6.39-6.31,6.39h-87.62s0,0,0,0c-4.02,0-6.48-3.57-6.48-7.26l.02-68.25c0-3.82,3.17-6.76,6.79-6.76h12.42c3.52-.01,6.45-1.81,7.98-4.93l5.8-11.81h34.75M457.94,678.14c3.01,0,5.45-2.44,5.45-5.45s-2.44-5.45-5.45-5.45-5.45,2.44-5.45,5.45,2.44,5.45,5.45,5.45M427.2,732.82c16.98,0,30.75-13.77,30.75-30.75s-13.77-30.75-30.75-30.75-30.75,13.77-30.75,30.75,13.77,30.75,30.75,30.75M446.41,644.54h-36.39s-1.6,0-1.6,0l-.7,1.43-5.8,11.81c-1.1,2.25-3.12,3.49-5.69,3.49h-12.42c-5.16.01-9.35,4.2-9.35,9.33l-.02,68.25c0,2.47.82,4.83,2.32,6.64,1.69,2.05,4.08,3.18,6.72,3.18h87.62c4.72,0,8.86-4.19,8.86-8.96v-69.09c.01-5.22-4.13-9.33-9.42-9.35l-12.83-.04c-3.19-.01-4.98-2.87-5.76-4.57l-4.87-10.63-.68-1.5h0ZM457.94,675.58c-1.59,0-2.89-1.29-2.89-2.89s1.29-2.89,2.89-2.89,2.89,1.29,2.89,2.89-1.29,2.89-2.89,2.89h0ZM427.2,730.26c-15.54,0-28.19-12.65-28.19-28.19s12.65-28.19,28.19-28.19,28.19,12.65,28.19,28.19-12.65,28.19-28.19,28.19h0Z"/>
    </g>
    <g>
      <path class="cls-4" d="M858.01,768.85c-3.3,0-6.44-1.32-8.85-3.73l-99.42-99.44c-5.07-5.07-9.23-10.56-12.48-15.2l-5.64,5.64c-1.01,1.01-2.43,1.59-3.89,1.59s-2.75-.53-3.76-1.48c-.96-.91-2.16-1.42-3.35-1.42s-2.19.45-3.04,1.3c-1.44,1.44-1.85,4.19,0,6.12,2.17,2.26,2.21,5.68.1,7.81l-10.45,10.48c-1.18,1.18-2.75,1.86-4.32,1.86-1.39,0-2.71-.55-3.7-1.55l-23.55-23.58c-2.22-2.23-2.23-5.71,0-7.93l10.44-10.45c1.11-1.11,2.54-1.72,4.03-1.72s2.98.61,4.16,1.72c1.02.97,2.15,1.17,2.92,1.17,1.18,0,2.33-.5,3.16-1.36,1.63-1.71,1.59-4.4-.09-6.12-2.17-2.23-2.17-5.69.01-7.87l32.65-32.67c1.13-1.14,2.6-1.76,4.12-1.76s3,.62,4.16,1.75l.56.55,3.28-3.24c5.54-5.47,12.56-8.24,20.86-8.24,11.56,0,22.81,5.33,30.21,9.8,1.29.78,2.74,2.57,2.88,4.35.12,1.5-.6,3.49-1.63,4.53l-4.53,4.55c-1.07,1.08-2.71,1.72-4.38,1.72-.31,0-.62-.02-.92-.07-2.1-.31-4.33-.47-6.47-.47-6.66,0-11.84,1.48-14.57,4.16l-3.86,3.79,1.81,1.86c2.26,2.31,2.22,5.78-.09,8.09l-5.45,5.44c5.85,3.99,11.29,8.57,16.94,14.22l97.68,97.67c2.07,2.07,2.91,4.33,3.58,6.15l.16.42v4.33l-.12.38c-.91,2.8-2.24,5.05-4.07,6.85l-6.63,6.52c-2.28,2.24-5.27,3.48-8.43,3.48ZM745.39,642.36c3.77,5.74,7.89,10.85,12.53,15.57l99.21,99.2c.29.29.64.46.95.46h0c.13,0,.32-.03.54-.26l7.26-7.24s.18-.18.18-.48c0-.34-.16-.7-.44-.98l-98.06-98.07c-5.21-5.19-10.7-9.67-16.75-13.65l-5.43,5.43ZM703.06,668.85l2.67-2.66-15.5-15.58-2.67,2.66,15.5,15.58ZM707.1,651.62c1.41-2.58,3.49-4.67,6.07-6.07l-2.33-2.33c-1.42,2.57-3.48,4.63-6.07,6.08l2.33,2.33ZM727.69,644.18l24.97-24.98-15.51-15.51-24.97,24.98,15.51,15.51ZM754.77,605.46l3.82-3.74c3.88-3.81,8.86-5.46,13.22-6.56l.09-.02.09-.02c1.9-.34,3.72-.58,5.49-.73-4.07-1.32-8.01-2.03-11.48-2.03-5.24,0-9.48,1.55-12.61,4.6l-3.6,3.51,5,4.99Z"/>
      <path class="cls-3" d="M765.9,583.6c9.84,0,20.3,4.23,28.91,9.44.82.5,1.62,1.65,1.67,2.4.06.78-.39,2.05-.91,2.56l-4.53,4.55c-.63.63-1.64.99-2.61.99-.19,0-.37-.01-.55-.04-2.11-.31-4.45-.5-6.84-.5-6.14,0-12.62,1.25-16.32,4.88l-5.64,5.54,3.56,3.64c1.35,1.38,1.23,3.28-.07,4.57l-7.62,7.61c7.11,4.56,13.24,9.72,19.11,15.59l97.68,97.68c1.62,1.62,2.29,3.33,3,5.24v3.48c-.7,2.15-1.73,4.15-3.45,5.84l-6.63,6.52c-1.89,1.86-4.28,2.76-6.67,2.76-2.55,0-5.1-1.02-7.08-3l-99.42-99.44c-5.29-5.29-9.64-11.07-13.9-17.32l-7.76,7.76c-.57.57-1.34.86-2.12.86-.73,0-1.47-.26-2.03-.8-1.46-1.38-3.27-2.1-5.08-2.1s-3.44.66-4.81,2.04c-2.52,2.52-2.75,6.79-.03,9.62,1.13,1.18,1.34,3.09.13,4.31l-10.45,10.48c-.66.66-1.6,1.12-2.55,1.12-.68,0-1.36-.24-1.93-.81l-23.55-23.58c-1.26-1.26-1.23-3.17,0-4.4l10.44-10.45c.67-.67,1.46-.98,2.26-.98.86,0,1.72.37,2.43,1.04,1.33,1.26,2.99,1.86,4.64,1.86,1.82,0,3.63-.73,4.97-2.13,2.53-2.65,2.56-6.85-.11-9.6-1.15-1.18-1.26-3.1-.01-4.35l32.65-32.67c.69-.7,1.52-1.03,2.35-1.03s1.71.36,2.41,1.04l2.32,2.27,5.03-4.97c5.47-5.4,12.13-7.52,19.1-7.52M754.75,608.98l5.59-5.48c3.25-3.19,7.54-4.77,12.09-5.93,3.04-.55,5.89-.84,8.77-.84,2,0,4.02.14,6.11.43l1.09-.75c-6.53-3.57-14.78-6.56-22.41-6.56-5.38,0-10.44,1.49-14.36,5.31l-5.42,5.28,8.54,8.53M727.69,647.72l28.51-28.52-19.05-19.04-28.51,28.52,19.05,19.04M858.08,760.09c.81,0,1.63-.3,2.31-.99l7.26-7.24c1.35-1.35,1.15-3.59-.26-5l-98.06-98.07c-5.76-5.75-11.93-10.7-18.86-15.07l-8.28,8.29c4.1,6.47,8.62,12.25,13.94,17.66l99.23,99.22c.75.75,1.73,1.19,2.71,1.19M708.03,656.09c1.2-4.86,4.74-8.41,9.6-9.61l-7.69-7.69c-1.39,5.04-4.89,8.27-9.58,9.64l7.66,7.66M703.05,672.38l6.22-6.19-19.03-19.12-6.22,6.19,19.03,19.12M765.9,578.6c-8.98,0-16.58,3.02-22.61,8.96l-1.64,1.62c-1.38-.92-2.97-1.41-4.6-1.41-2.19,0-4.28.89-5.89,2.49l-32.65,32.67c-3.1,3.11-3.12,8.21-.04,11.38.75.77.78,1.91.07,2.65-.35.37-.84.58-1.35.58-.45,0-.85-.16-1.2-.49-1.64-1.55-3.73-2.41-5.88-2.41s-4.22.87-5.8,2.45l-10.44,10.45c-3.21,3.21-3.21,8.25,0,11.47l23.55,23.58c1.47,1.47,3.41,2.28,5.47,2.28,2.23,0,4.45-.95,6.09-2.59l10.45-10.48c3.08-3.09,3.06-8.06-.07-11.31-.81-.85-.66-2-.04-2.62.38-.38.8-.57,1.27-.57.56,0,1.14.26,1.63.73,1.48,1.4,3.42,2.17,5.48,2.17s4.18-.85,5.66-2.32l3.55-3.55c3.02,4.16,6.7,8.77,11.03,13.11l99.42,99.44c2.88,2.88,6.65,4.46,10.62,4.46s7.43-1.49,10.18-4.2l6.63-6.52c2.13-2.09,3.66-4.67,4.7-7.86l.24-.75v-5.17l-.31-.84c-.72-1.94-1.7-4.59-4.15-7.05l-97.68-97.67c-4.97-4.97-9.78-9.12-14.84-12.78l3.34-3.34c3.31-3.3,3.35-8.29.11-11.61l-.07-.07,2.08-2.04c2.23-2.19,6.9-3.45,12.81-3.45,2.02,0,4.13.15,6.11.45.42.06.85.09,1.28.09,2.36,0,4.6-.9,6.16-2.46l4.53-4.55c1.56-1.57,2.53-4.24,2.35-6.49-.22-2.76-2.27-5.2-4.08-6.3-7.67-4.63-19.36-10.16-31.5-10.16h0ZM753.34,600.49l1.79-1.74c2.36-2.3,5.53-3.59,9.44-3.84-2.69,1.15-5.39,2.74-7.72,5.03l-2.05,2.01-1.45-1.45h0ZM715.72,628.67l21.43-21.44,11.97,11.97-21.43,21.44-11.97-11.97h0ZM748.61,642.67l2.52-2.52c5.24,3.59,10.07,7.61,14.67,12.19l97.14,97.15-4.96,4.95-98.31-98.3c-4.04-4.11-7.69-8.55-11.06-13.47h0Z"/>
      <path d="M765.9,583.6c9.84,0,20.3,4.23,28.91,9.44.82.5,1.62,1.65,1.67,2.4.06.78-.39,2.05-.91,2.56l-4.53,4.55c-.63.63-1.64.99-2.61.99-.19,0-.37-.01-.55-.04-2.11-.31-4.45-.5-6.84-.5-6.14,0-12.62,1.25-16.32,4.88l-5.64,5.54,3.56,3.64c1.35,1.38,1.23,3.28-.07,4.57l-7.62,7.61c7.11,4.56,13.24,9.72,19.11,15.59l97.68,97.68c1.62,1.62,2.29,3.33,3,5.24v3.48c-.7,2.15-1.73,4.15-3.45,5.84l-6.63,6.52c-1.89,1.86-4.28,2.76-6.67,2.76-2.55,0-5.1-1.02-7.08-3l-99.42-99.44c-5.29-5.29-9.64-11.07-13.9-17.32l-7.76,7.76c-.57.57-1.34.86-2.12.86-.73,0-1.47-.26-2.03-.8-1.46-1.38-3.27-2.1-5.08-2.1s-3.44.66-4.81,2.04c-2.52,2.52-2.75,6.79-.03,9.62,1.13,1.18,1.34,3.09.13,4.31l-10.45,10.48c-.66.66-1.6,1.12-2.55,1.12-.68,0-1.36-.24-1.93-.81l-23.55-23.58c-1.26-1.26-1.23-3.17,0-4.4l10.44-10.45c.67-.67,1.46-.98,2.26-.98.86,0,1.72.37,2.43,1.04,1.33,1.26,2.99,1.86,4.64,1.86,1.82,0,3.63-.73,4.97-2.13,2.53-2.65,2.56-6.85-.11-9.6-1.15-1.18-1.26-3.1-.01-4.35l32.65-32.67c.69-.7,1.52-1.03,2.35-1.03s1.71.36,2.41,1.04l2.32,2.27,5.03-4.97c5.47-5.4,12.13-7.52,19.1-7.52M754.75,608.98l5.59-5.48c3.25-3.19,7.54-4.77,12.09-5.93,3.04-.55,5.89-.84,8.77-.84,2,0,4.02.14,6.11.43l1.09-.75c-6.53-3.57-14.78-6.56-22.41-6.56-5.38,0-10.44,1.49-14.36,5.31l-5.42,5.28,8.54,8.53M727.69,647.72l28.51-28.52-19.05-19.04-28.51,28.52,19.05,19.04M858.08,760.09c.81,0,1.63-.3,2.31-.99l7.26-7.24c1.35-1.35,1.15-3.59-.26-5l-98.06-98.07c-5.76-5.75-11.93-10.7-18.86-15.07l-8.28,8.29c4.1,6.47,8.62,12.25,13.94,17.66l99.23,99.22c.75.75,1.73,1.19,2.71,1.19M708.03,656.09c1.2-4.86,4.74-8.41,9.6-9.61l-7.69-7.69c-1.39,5.04-4.89,8.27-9.58,9.64l7.66,7.66M703.05,672.38l6.22-6.19-19.03-19.12-6.22,6.19,19.03,19.12M765.9,580.74c-8.39,0-15.49,2.81-21.11,8.35l-3.03,2.99-.31-.31c-1.22-1.2-2.79-1.85-4.41-1.85s-3.17.66-4.37,1.87l-32.65,32.67c-2.32,2.32-2.32,5.99-.02,8.37,1.55,1.59,1.58,4.06.09,5.63-.76.79-1.81,1.25-2.9,1.25-.7,0-1.73-.19-2.67-1.07-1.24-1.17-2.8-1.82-4.4-1.82s-3.11.65-4.28,1.82l-10.44,10.45c-2.36,2.36-2.36,6.07,0,8.44l23.55,23.58c1.06,1.06,2.47,1.65,3.95,1.65,1.66,0,3.33-.72,4.57-1.96l10.45-10.48c2.25-2.26,2.21-5.91-.09-8.31-1.73-1.8-1.36-4.27-.01-5.62.78-.78,1.75-1.2,2.79-1.2,1.11,0,2.21.47,3.11,1.32,1.08,1.02,2.5,1.58,4,1.58s3.06-.62,4.14-1.7l5.34-5.33c3.22,4.58,7.31,9.94,12.28,14.9l99.42,99.44c2.47,2.47,5.7,3.83,9.1,3.83s6.33-1.27,8.68-3.58l6.63-6.52c1.88-1.85,3.24-4.13,4.16-6.99l.14-.43v-4.45l-.18-.48c-.68-1.85-1.53-4.15-3.66-6.27l-97.68-97.68c-5.56-5.55-10.91-10.07-16.64-14.02l5.15-5.14c2.45-2.45,2.49-6.14.09-8.59l-1.56-1.6,3.6-3.54c2.63-2.58,7.84-4.06,14.32-4.06,2.12,0,4.34.16,6.42.47.32.05.64.07.97.07,1.77,0,3.5-.68,4.64-1.83l4.53-4.55c1.11-1.12,1.86-3.19,1.73-4.81-.15-1.92-1.65-3.78-3.05-4.63-7.44-4.49-18.75-9.85-30.39-9.85h0ZM750.28,600.47l3.34-3.26c3.06-2.98,7.22-4.5,12.36-4.5,2.95,0,6.24.52,9.66,1.49-1.21.14-2.45.32-3.73.56l-.1.02-.1.02c-4.4,1.12-9.44,2.79-13.38,6.66l-3.57,3.5-4.49-4.48h0ZM712.68,628.67l24.46-24.48,15.01,15-24.46,24.48-15.01-15h0ZM745.85,642.4l5.02-5.02c5.93,3.92,11.33,8.33,16.45,13.44l98.06,98.06c.25.25.33.54.33.72,0,.15-.05.21-.07.23l-7.26,7.24c-.15.15-.24.15-.29.15-.15,0-.43-.09-.69-.36l-99.23-99.22c-4.55-4.62-8.59-9.63-12.31-15.25h0ZM705.35,649.36c2.32-1.38,4.2-3.27,5.56-5.57l1.67,1.67c-2.31,1.35-4.21,3.26-5.56,5.57l-1.67-1.67h0ZM688.06,653.27l2.16-2.15,15,15.07-2.16,2.15-15-15.07h0Z"/>
    </g>
    <g>
      <path class="cls-4" d="M58.36,748.38c-21.54,0-41.27-12.62-50.26-32.16-10.69-23.21-4.21-50.47,15.73-66.42l19.82-24.78.33-.24c7.95-5.73,17.02-9.12,26.98-10.07l10.14-10.07c3.85-3.82,9.08-5.93,14.73-5.93,2.05,0,4.13.27,6.18.81,5.46,1.43,10.36,5.5,13.34,10.95,2.52-.99,5.24-1.5,8.01-1.5s5.52.53,8.05,1.54c2.93-5.44,7.82-9.54,13.33-11,2.03-.54,4.1-.81,6.13-.81,5.72,0,11.08,2.18,15.08,6.15l9.93,9.84c9.95.93,19.01,4.33,26.95,10.09l.33.24,19.71,24.66c19.84,15.91,26.41,43.07,15.96,66.18-8.92,19.74-28.7,32.5-50.38,32.5-3.01,0-6.06-.25-9.06-.74-22.68-3.71-40.76-21.42-45.22-43.72-3.46,1.35-7.12,2.05-10.77,2.05-3.65,0-7.31-.71-10.77-2.06-4.43,22.15-22.33,39.83-44.78,43.69-3.14.54-6.33.81-9.48.81ZM58.34,660.28c-18.06,0-32.75,14.69-32.75,32.75s14.69,32.75,32.75,32.75,32.75-14.69,32.75-32.75-14.69-32.75-32.75-32.75ZM188.44,660.25c-18.06,0-32.75,14.69-32.75,32.75s14.69,32.75,32.75,32.75,32.75-14.69,32.75-32.75-14.69-32.75-32.75-32.75ZM123.38,669.32c-3.98,0-7.22,3.24-7.22,7.22s3.24,7.22,7.22,7.22,7.22-3.24,7.22-7.22-3.24-7.22-7.22-7.22Z"/>
      <path class="cls-3" d="M150.87,601.69c4.85,0,9.44,1.78,12.97,5.28l10.7,10.6c9.8.74,18.73,3.96,26.53,9.62l19.67,24.61c19.03,15.06,25.39,40.64,15.36,62.82-8.42,18.61-27.05,30.74-47.66,30.74-2.83,0-5.7-.23-8.58-.7-22.19-3.63-40.51-21.81-43.38-45.16-4.14,2.3-8.61,3.45-13.09,3.45s-8.95-1.15-13.09-3.46c-2.86,23.21-20.96,41.35-42.96,45.13-3.02.52-6.02.77-8.98.77-20.47,0-39.06-11.98-47.55-30.42-10.24-22.24-3.85-48.04,15.14-63.04l19.77-24.72c7.81-5.63,16.73-8.85,26.57-9.61l10.91-10.83c3.43-3.41,7.92-5.06,12.62-5.06,1.79,0,3.62.24,5.43.71,5.67,1.48,10.41,6.23,12.66,12.07,2.81-1.65,6.11-2.52,9.44-2.52s6.56.83,9.5,2.58c2.17-5.83,6.9-10.62,12.65-12.15,1.8-.48,3.6-.71,5.36-.71M188.44,728.74c19.74,0,35.74-16,35.74-35.74s-16-35.74-35.74-35.74-35.74,16-35.74,35.74,16,35.74,35.74,35.74M58.34,728.77c19.74,0,35.74-16,35.74-35.74s-16-35.74-35.74-35.74-35.74,16-35.74,35.74,16,35.74,35.74,35.74M123.38,686.76c5.64,0,10.21-4.57,10.21-10.21s-4.57-10.21-10.21-10.21-10.21,4.57-10.21,10.21,4.57,10.21,10.21,10.21M150.87,595.71h0c-2.29,0-4.61.31-6.9.91-5.53,1.47-10.51,5.23-13.88,10.29-2.17-.61-4.44-.93-6.73-.93s-4.54.31-6.7.91c-3.41-5.07-8.4-8.82-13.89-10.26-2.3-.6-4.64-.91-6.94-.91-6.44,0-12.42,2.41-16.84,6.8l-9.39,9.33c-10.07,1.14-19.26,4.67-27.37,10.51l-.66.48-.51.64-19.36,24.2c-20.81,16.84-27.53,45.44-16.32,69.8,9.48,20.6,30.28,33.9,52.98,33.9,3.33,0,6.69-.29,9.99-.85,22.54-3.87,40.73-20.97,46.44-42.77,2.81.78,5.71,1.18,8.6,1.18s5.78-.4,8.59-1.18c5.75,21.95,24.13,39.08,46.91,42.81,3.16.52,6.37.78,9.55.78,22.85,0,43.7-13.45,53.1-34.25,5.47-12.1,6.7-25.23,3.57-37.97-3.07-12.48-10.02-23.38-20.13-31.57l-19.26-24.09-.5-.63-.65-.47c-8.09-5.88-17.29-9.41-27.35-10.54l-9.18-9.1c-4.56-4.52-10.67-7.01-17.18-7.01h0ZM188.44,722.76c-16.41,0-29.76-13.35-29.76-29.76s13.35-29.76,29.76-29.76,29.76,13.35,29.76,29.76-13.35,29.76-29.76,29.76h0ZM58.34,722.79c-16.41,0-29.76-13.35-29.76-29.76s13.35-29.76,29.76-29.76,29.76,13.35,29.76,29.76-13.35,29.76-29.76,29.76h0ZM123.38,680.78c-2.34,0-4.24-1.9-4.24-4.24s1.9-4.24,4.24-4.24,4.24,1.9,4.24,4.24-1.9,4.24-4.24,4.24h0Z"/>
      <path d="M150.87,601.69c4.85,0,9.44,1.78,12.97,5.28l10.7,10.6c9.8.74,18.73,3.96,26.53,9.62l19.67,24.61c19.03,15.06,25.39,40.64,15.36,62.82-8.42,18.61-27.05,30.74-47.66,30.74-2.83,0-5.7-.23-8.58-.7-22.19-3.63-40.51-21.81-43.38-45.16-4.14,2.3-8.61,3.45-13.09,3.45s-8.95-1.15-13.09-3.46c-2.86,23.21-20.96,41.35-42.96,45.13-3.02.52-6.02.77-8.98.77-20.47,0-39.06-11.98-47.55-30.42-10.24-22.24-3.85-48.04,15.14-63.04l19.77-24.72c7.81-5.63,16.73-8.85,26.57-9.61l10.91-10.83c3.43-3.41,7.92-5.06,12.62-5.06,1.79,0,3.62.24,5.43.71,5.67,1.48,10.41,6.23,12.66,12.07,2.81-1.65,6.11-2.52,9.44-2.52s6.56.83,9.5,2.58c2.17-5.83,6.9-10.62,12.65-12.15,1.8-.48,3.6-.71,5.36-.71M188.44,728.74c19.74,0,35.74-16,35.74-35.74s-16-35.74-35.74-35.74-35.74,16-35.74,35.74,16,35.74,35.74,35.74M58.34,728.77c19.74,0,35.74-16,35.74-35.74s-16-35.74-35.74-35.74-35.74,16-35.74,35.74,16,35.74,35.74,35.74M123.38,686.76c5.64,0,10.21-4.57,10.21-10.21s-4.57-10.21-10.21-10.21-10.21,4.57-10.21,10.21,4.57,10.21,10.21,10.21M150.87,598.27h0c-2.07,0-4.17.28-6.24.83-5.51,1.46-10.41,5.5-13.42,10.88-2.48-.94-5.15-1.43-7.86-1.43s-5.35.48-7.82,1.4c-3.05-5.38-7.96-9.41-13.42-10.83-2.09-.55-4.21-.82-6.29-.82-5.76,0-11.1,2.15-15.03,6.05l-10.03,9.96c-9.97.98-19.06,4.39-27.03,10.13l-.38.27-.29.36-19.53,24.42c-20.07,16.08-26.58,43.53-15.82,66.91,9.06,19.69,28.95,32.41,50.65,32.41,3.18,0,6.4-.27,9.56-.82,22.45-3.86,40.39-21.44,45.02-43.53,3.37,1.25,6.91,1.91,10.45,1.91s7.08-.65,10.45-1.9c4.66,22.25,22.78,39.85,45.47,43.57,3.02.49,6.09.75,9.13.75,21.85,0,41.78-12.85,50.77-32.75,5.23-11.57,6.41-24.12,3.42-36.3-2.95-12.02-9.68-22.51-19.47-30.36l-19.43-24.31-.29-.36-.37-.27c-7.96-5.78-17.04-9.19-27.01-10.15l-9.82-9.73c-4.08-4.04-9.54-6.27-15.38-6.27h0ZM188.44,725.32c-17.82,0-32.32-14.5-32.32-32.32s14.5-32.32,32.32-32.32,32.32,14.5,32.32,32.32-14.5,32.32-32.32,32.32h0ZM58.34,725.36c-17.82,0-32.32-14.5-32.32-32.32s14.5-32.32,32.32-32.32,32.32,14.5,32.32,32.32-14.5,32.32-32.32,32.32h0ZM123.38,683.34c-3.75,0-6.8-3.05-6.8-6.8s3.05-6.8,6.8-6.8,6.8,3.05,6.8,6.8-3.05,6.8-6.8,6.8h0Z"/>
    </g>
  </g>
</svg>