<?xml version="1.0" encoding="UTF-8"?>
<svg id="_圖層_2" data-name="圖層 2" xmlns="http://www.w3.org/2000/svg" viewBox="0 0 237.61 207.95">
  <defs>
    <style>
      .cls-1 {
        fill: #d5ff03;
      }

      .cls-2 {
        fill: none;
        stroke: #d5ff03;
        stroke-miterlimit: 10;
        stroke-width: 4.79px;
      }
    </style>
  </defs>
  <g id="_圖層_2-2" data-name="圖層 2">
    <g>
      <g>
        <path class="cls-1" d="M171.31,156.28c-35.61,5.63-71.32,5.53-106.54-.27-18.55-3.05-43.86-9.78-56.97-22.76C3.69,129.18,0,123.81,0,117.81l.03-45.61c0-5.96,4.07-11.13,8.2-15.04,13.01-12.28,37.88-19.07,55.91-22.22,37.24-6.51,75.26-6.36,112.42.57,17.12,3.19,40.49,9.96,52.81,21.64,4.13,3.92,8.19,9.08,8.2,15.04l.03,45.6c0,5.88-3.55,11.15-7.54,15.18-13.24,13.37-39.47,20.24-58.76,23.29ZM199.65,140.25c12.55-4.37,35.91-15.77,28.07-28.93-9.39-15.76-44.79-23.95-63.52-26.71-38.51-5.68-85.99-4.55-123.1,7.5-10.74,3.49-25.22,9.7-31.01,18.86-4.71,7.46,1.09,14.86,8.28,19.7,14.82,9.97,37.12,15.53,55.14,18.16,39.46,5.77,88.37,4.58,126.14-8.58Z"/>
        <path class="cls-1" d="M173.97,26.26c-37.02-6.07-74.33-6-110.97.12-16.21,2.71-31.35,7.48-46.17,14.61C20.4,18.04,53.44,7.86,74.13,4.05c28.24-5.19,56.94-5.35,85.28-.74,21.71,3.53,57.41,13.61,61.32,37.63-14.93-7.13-30.12-11.95-46.77-14.68Z"/>
        <path class="cls-1" d="M84.67,200.21c-.7,2.49-3.28,3.35-5.18,2.83-1.87-.51-3.66-2.67-3.02-4.94l6.76-23.95c.66-2.35,2.72-3.55,4.99-3.17,1.91.32,3.98,2.62,3.29,5.06l-6.84,24.17Z"/>
        <path class="cls-1" d="M161.08,197.88c.7,2.48-1.09,4.55-3,5.11-1.75.51-4.44-.41-5.06-2.59l-6.83-23.96c-.69-2.43.8-4.69,2.86-5.3,2.61-.78,4.72.77,5.46,3.4l6.57,23.33Z"/>
        <path class="cls-1" d="M48.91,193.59c-1.34,2.5-3.78,3.23-5.81,2.27-2.23-1.06-3.12-3.62-1.88-5.91l11.31-21.02c1.19-2.21,3.29-3.28,5.63-2.36,1.78.7,3.51,3.3,2.32,5.51l-11.57,21.52Z"/>
        <path class="cls-1" d="M196.12,189.41c1.33,2.45.85,4.85-1.36,6.2-1.94,1.18-4.66.56-5.95-1.83l-11.52-21.34c-1.19-2.2-.07-4.71,1.85-5.69,2.01-1.03,4.53-.31,5.71,1.86l11.27,20.81Z"/>
        <path class="cls-1" d="M123.08,203.07c0,2.86-1.64,4.75-4.06,4.88-2.57.13-4.48-1.89-4.48-4.63l.03-23.39c0-2.47,1.89-4.14,4-4.25,2.34-.12,4.47,1.61,4.48,4.24l.04,23.14Z"/>
        <path class="cls-1" d="M226.87,176.71c1.73,2.1,1.6,4.56-.22,6.23-1.49,1.37-4.35,1.6-5.95-.33l-14.36-17.46c-1.49-1.81-.97-4.33.52-5.72,1.52-1.42,4.38-1.64,5.98.3l14.02,16.98Z"/>
        <path class="cls-1" d="M17.05,182.48c-1.57,1.92-4.26,1.77-5.77.64-1.68-1.27-2.42-4.03-.87-5.92l14.32-17.51c1.45-1.78,4.15-1.66,5.69-.51,1.73,1.29,2.41,4.01.82,5.95l-14.19,17.35Z"/>
        <path class="cls-1" d="M186.42,129.16c-29.48,9.61-75.45,9.53-106.63,5.94-12.33-1.42-43.07-6.39-43.5-18.08-.42-11.52,25.16-16.15,37-17.71,31.88-4.21,63.87-4.1,95.67.69,9.76,1.47,24.03,4.71,30.16,11.24,3.23,3.44,2.82,8.32-.68,11.41-3.41,3.01-7.55,5.05-12.01,6.51Z"/>
      </g>
      <g>
        <path class="cls-2" d="M171.31,156.28c-35.61,5.63-71.32,5.53-106.54-.27-18.55-3.05-43.86-9.78-56.97-22.76C3.69,129.18,0,123.81,0,117.81l.03-45.61c0-5.96,4.07-11.13,8.2-15.04,13.01-12.28,37.88-19.07,55.91-22.22,37.24-6.51,75.26-6.36,112.42.57,17.12,3.19,40.49,9.96,52.81,21.64,4.13,3.92,8.19,9.08,8.2,15.04l.03,45.6c0,5.88-3.55,11.15-7.54,15.18-13.24,13.37-39.47,20.24-58.76,23.29ZM199.65,140.25c12.55-4.37,35.91-15.77,28.07-28.93-9.39-15.76-44.79-23.95-63.52-26.71-38.51-5.68-85.99-4.55-123.1,7.5-10.74,3.49-25.22,9.7-31.01,18.86-4.71,7.46,1.09,14.86,8.28,19.7,14.82,9.97,37.12,15.53,55.14,18.16,39.46,5.77,88.37,4.58,126.14-8.58Z"/>
        <path class="cls-2" d="M173.97,26.26c-37.02-6.07-74.33-6-110.97.12-16.21,2.71-31.35,7.48-46.17,14.61C20.4,18.04,53.44,7.86,74.13,4.05c28.24-5.19,56.94-5.35,85.28-.74,21.71,3.53,57.41,13.61,61.32,37.63-14.93-7.13-30.12-11.95-46.77-14.68Z"/>
        <path class="cls-2" d="M84.67,200.21c-.7,2.49-3.28,3.35-5.18,2.83-1.87-.51-3.66-2.67-3.02-4.94l6.76-23.95c.66-2.35,2.72-3.55,4.99-3.17,1.91.32,3.98,2.62,3.29,5.06l-6.84,24.17Z"/>
        <path class="cls-2" d="M161.08,197.88c.7,2.48-1.09,4.55-3,5.11-1.75.51-4.44-.41-5.06-2.59l-6.83-23.96c-.69-2.43.8-4.69,2.86-5.3,2.61-.78,4.72.77,5.46,3.4l6.57,23.33Z"/>
        <path class="cls-2" d="M48.91,193.59c-1.34,2.5-3.78,3.23-5.81,2.27-2.23-1.06-3.12-3.62-1.88-5.91l11.31-21.02c1.19-2.21,3.29-3.28,5.63-2.36,1.78.7,3.51,3.3,2.32,5.51l-11.57,21.52Z"/>
        <path class="cls-2" d="M196.12,189.41c1.33,2.45.85,4.85-1.36,6.2-1.94,1.18-4.66.56-5.95-1.83l-11.52-21.34c-1.19-2.2-.07-4.71,1.85-5.69,2.01-1.03,4.53-.31,5.71,1.86l11.27,20.81Z"/>
        <path class="cls-2" d="M123.08,203.07c0,2.86-1.64,4.75-4.06,4.88-2.57.13-4.48-1.89-4.48-4.63l.03-23.39c0-2.47,1.89-4.14,4-4.25,2.34-.12,4.47,1.61,4.48,4.24l.04,23.14Z"/>
        <path class="cls-2" d="M226.87,176.71c1.73,2.1,1.6,4.56-.22,6.23-1.49,1.37-4.35,1.6-5.95-.33l-14.36-17.46c-1.49-1.81-.97-4.33.52-5.72,1.52-1.42,4.38-1.64,5.98.3l14.02,16.98Z"/>
        <path class="cls-2" d="M17.05,182.48c-1.57,1.92-4.26,1.77-5.77.64-1.68-1.27-2.42-4.03-.87-5.92l14.32-17.51c1.45-1.78,4.15-1.66,5.69-.51,1.73,1.29,2.41,4.01.82,5.95l-14.19,17.35Z"/>
        <path class="cls-2" d="M186.42,129.16c-29.48,9.61-75.45,9.53-106.63,5.94-12.33-1.42-43.07-6.39-43.5-18.08-.42-11.52,25.16-16.15,37-17.71,31.88-4.21,63.87-4.1,95.67.69,9.76,1.47,24.03,4.71,30.16,11.24,3.23,3.44,2.82,8.32-.68,11.41-3.41,3.01-7.55,5.05-12.01,6.51Z"/>
      </g>
    </g>
  </g>
</svg>