<?xml version="1.0" encoding="UTF-8"?>
<svg id="_圖層_2" data-name="圖層 2" xmlns="http://www.w3.org/2000/svg" viewBox="0 0 351.53 215.1">
  <defs>
    <style>
      .cls-1 {
        fill: #d5ff03;
      }

      .cls-2 {
        fill: none;
        stroke: #d5ff03;
        stroke-width: 13.79px;
      }

      .cls-3 {
        fill: #4858f9;
      }
    </style>
  </defs>
  <g id="_圖層_2-2" data-name="圖層 2">
    <g>
      <path class="cls-1" d="M321.48,75.01c28.48,22.55,38.01,60.83,23,94.04-14.33,31.69-48.44,50.81-84.18,44.96-33.22-5.44-60.63-32.65-64.94-67.6-12.39,6.89-26.79,6.89-39.17-.01-4.28,34.74-31.38,61.9-64.31,67.56-35.72,6.14-70.06-12.79-84.61-44.39-15.33-33.29-5.76-71.91,22.66-94.36l29.6-37c11.68-8.42,25.04-13.25,39.76-14.38l16.32-16.21c7.1-7.05,17.2-9.07,27.02-6.51,8.49,2.22,15.58,9.32,18.95,18.06,8.32-4.88,19.46-5.21,28.35.1,3.25-8.72,10.33-15.9,18.94-18.19,10.07-2.67,20.24-.31,27.45,6.84l16.01,15.87c14.67,1.1,28.04,5.93,39.7,14.4l29.44,36.83ZM131.89,136.73c0-29.54-23.95-53.49-53.49-53.49s-53.49,23.95-53.49,53.49,23.95,53.49,53.49,53.49,53.49-23.95,53.49-53.49ZM326.63,136.68c0-29.54-23.95-53.49-53.49-53.49s-53.49,23.95-53.49,53.49,23.95,53.49,53.49,53.49,53.49-23.95,53.49-53.49ZM191.04,112.05c0-8.44-6.84-15.29-15.29-15.29s-15.29,6.84-15.29,15.29,6.84,15.29,15.29,15.29,15.29-6.84,15.29-15.29Z"/>
      <path class="cls-3" d="M321.48,75.01c28.48,22.55,38.01,60.83,23,94.04-14.33,31.69-48.44,50.81-84.18,44.96-33.22-5.44-60.63-32.65-64.94-67.6-12.39,6.89-26.79,6.89-39.17-.01-4.28,34.74-31.38,61.9-64.31,67.56-35.72,6.14-70.06-12.79-84.61-44.39-15.33-33.29-5.76-71.91,22.66-94.36l29.6-37c11.68-8.42,25.04-13.25,39.76-14.38l16.32-16.21c7.1-7.05,17.2-9.07,27.02-6.51,8.49,2.22,15.58,9.32,18.95,18.06,8.32-4.88,19.46-5.21,28.35.1,3.25-8.72,10.33-15.9,18.94-18.19,10.07-2.67,20.24-.31,27.45,6.84l16.01,15.87c14.67,1.1,28.04,5.93,39.7,14.4l29.44,36.83ZM131.89,136.73c0-29.54-23.95-53.49-53.49-53.49s-53.49,23.95-53.49,53.49,23.95,53.49,53.49,53.49,53.49-23.95,53.49-53.49ZM326.63,136.68c0-29.54-23.95-53.49-53.49-53.49s-53.49,23.95-53.49,53.49,23.95,53.49,53.49,53.49,53.49-23.95,53.49-53.49ZM191.04,112.05c0-8.44-6.84-15.29-15.29-15.29s-15.29,6.84-15.29,15.29,6.84,15.29,15.29,15.29,15.29-6.84,15.29-15.29Z"/>
      <path class="cls-2" d="M321.48,75.01c28.48,22.55,38.01,60.83,23,94.04-14.33,31.69-48.44,50.81-84.18,44.96-33.22-5.44-60.63-32.65-64.94-67.6-12.39,6.89-26.79,6.89-39.17-.01-4.28,34.74-31.38,61.9-64.31,67.56-35.72,6.14-70.06-12.79-84.61-44.39-15.33-33.29-5.76-71.91,22.66-94.36l29.6-37c11.68-8.42,25.04-13.25,39.76-14.38l16.32-16.21c7.1-7.05,17.2-9.07,27.02-6.51,8.49,2.22,15.58,9.32,18.95,18.06,8.32-4.88,19.46-5.21,28.35.1,3.25-8.72,10.33-15.9,18.94-18.19,10.07-2.67,20.24-.31,27.45,6.84l16.01,15.87c14.67,1.1,28.04,5.93,39.7,14.4l29.44,36.83ZM131.89,136.73c0-29.54-23.95-53.49-53.49-53.49s-53.49,23.95-53.49,53.49,23.95,53.49,53.49,53.49,53.49-23.95,53.49-53.49ZM326.63,136.68c0-29.54-23.95-53.49-53.49-53.49s-53.49,23.95-53.49,53.49,23.95,53.49,53.49,53.49,53.49-23.95,53.49-53.49ZM191.04,112.05c0-8.44-6.84-15.29-15.29-15.29s-15.29,6.84-15.29,15.29,6.84,15.29,15.29,15.29,15.29-6.84,15.29-15.29Z"/>
    </g>
  </g>
</svg>