<?xml version="1.0" encoding="UTF-8"?>
<svg id="_喇뒨쏛_2" data-name="喇뒨쏛 2" xmlns="http://www.w3.org/2000/svg" viewBox="0 0 1052 516.38">
  <defs>
    <style>
      .cls-1 {
        fill: #4858f9;
      }
    </style>
  </defs>
  <g id="_喇뒨쏛_2-2" data-name="喇뒨쏛 2">
    <polygon class="cls-1" points="1015.89 478.56 944.26 485.97 859.56 516.38 774.86 505.21 690.16 497.83 605.46 465.79 520.76 467.42 436.06 479.83 351.36 487.53 266.66 483.34 181.96 508.81 97.25 485.9 21.66 482.81 2.09 413.99 32.63 335.35 10.29 256.71 28.29 178.07 33.57 99.42 0 7.26 97.24 43.88 181.94 48.74 266.64 33.83 351.34 15.1 436.04 1.27 520.74 39.99 605.44 41.75 690.14 41.02 774.84 5.09 859.54 24.3 944.25 38.88 1048.24 0 1031.83 99.41 1046.31 178.06 1050.08 256.7 1028.71 335.34 1052 416.09 1015.89 478.56"/>
  </g>
</svg>