<?xml version="1.0" encoding="UTF-8"?>
<svg id="_圖層_2" data-name="圖層 2" xmlns="http://www.w3.org/2000/svg" xmlns:xlink="http://www.w3.org/1999/xlink" viewBox="0 0 1069.95 1069.95">
  <defs>
    <style>
      .cls-1 {
        fill: #fff;
      }

      .cls-2 {
        fill: #233365;
      }

      .cls-3 {
        fill: none;
      }

      .cls-4 {
        fill: #0f0f0f;
      }

      .cls-5 {
        fill: #4858f9;
      }

      .cls-6 {
        fill: #c1c1c1;
      }

      .cls-7 {
        clip-path: url(#clippath);
      }

      .cls-8 {
        fill: #fdfdfd;
      }
    </style>
    <clipPath id="clippath">
      <circle class="cls-3" cx="534.98" cy="534.98" r="534.98"/>
    </clipPath>
  </defs>
  <g id="_圖層_3" data-name="圖層 3">
    <g class="cls-7">
      <g>
        <path class="cls-8" d="M603,808.82v4.46s-4.46,0-4.46,0c-.43-.69-3.08-4.15-2.67-4.45,2.36.09,4.78-.15,7.13,0Z"/>
        <path class="cls-4" d="M566.45,270.55c5.31,1.01,13.63,2.9,18.72,4.46,7.34,2.24,17.92,6.55,24.96,9.8,3.5,1.62,8.01,4.32,11.59,6.24,5.54,2.96,11.68,6.41,16.94,9.8,1.11.72,2.31,1.83,3.57,2.67,5.09,3.44,10.19,7.08,15.15,10.69,2.15,1.56,5.42,5.76,8.02,6.24,3.04,3.36,6.4,8.13,10.7,9.8.41,2.17,6.08,6.56,8.02,8.91,3.42,4.14,6.23,9.32,10.7,12.48.5,3.16,2.59,3.71,3.57,5.35,6.83,11.51,16.07,24.7,21.39,36.54,2.09,4.64,5.34,13.63,7.13,18.71,1.56,4.43,1.65,10.18,4.46,14.26,0,.3-.02.6,0,.89.02.29-.04.6,0,.89.06.51.8,1.24.89,1.78,1.12,6.33,3.24,12.45,4.46,18.71,1.14,5.86,2.62,11.97,3.57,17.82.96,5.95,2.09,12.95,2.67,18.71.57,5.65.58,12.09.89,17.82.32,5.78.82,13.26.89,18.71.07,5.92.1,11.91,0,17.82-.1,5.7-.57,12.84-.89,18.71-.26,4.72-2.28,12.98-1.78,16.93.43,3.42,4.18,4.04,6.24,6.24,2.89,3.09,7.29,9.55,8.91,13.37,1.76,4.12,4.43,13.36,5.35,17.82.96,4.67,2.67,14.54,2.67,18.71,0,4.55-2.35,13.71-4.46,17.82-1.23,2.39-6.5,9.54-8.43,11.62-1.98,2.13-7.78,5.46-8.93,8-1.69,3.71.2,10.1.29,13.86.02,1.03-.76,1.95-.75,2.17.34,6.45,1.53,12.21,1.78,18.71.24,6.17.1,12.54,0,18.71-.1,5.86-.61,11.93-.89,17.82-.3,6.22-.39,12.51-.89,18.71-.46,5.67-.9,13.29-1.78,18.71-.84,5.13-2.97,12.67-4.46,17.82-1.01,3.48-3.6,12.41-5.63,14.87-1.95,2.37-15.33,11.32-18.44,12.75-2.91,1.35-14.97,5.66-17.83,6.24-1.7.35-15.44,1.42-16.04.89.3-4.1,4.72-6.56,4.45-10.68-2.58-.23-5.5.3-8.02,0-5.26-.63-10.85-1.09-16.05-1.78-6.48-.86-13.07-2.8-19.61-3.56-3.49-.41-6.22-.72-9.81-.89.86-6.06,2.51-11.77,3.57-17.82,1.01-5.83,2.85-11.84,1.34-17.83-.94-.02-4.89,15.72-5.79,17.83-1.27,2.97-8.15,12.89-8.02,15.15-5.87-.5-11.97-1.42-17.83-1.78-2.35-.14-4.77.1-7.13,0-.41.3,2.24,3.76,2.67,4.45,1.84,2.97,2.89,4.56,5.35,7.13,2.98,3.12,14.93,13.05,18.46,14.07,1.77.51,15.15,1.05,18.09,1.08,6.01.06,11.81-.86,17.83-.89,7.76-.04,11.16.17,17.83,4.46,12.11,7.79,24.4,16.14,36.55,24.06,2.83,1.84,6.35,3.61,8.91,5.35,2.63,1.78,6.27,4.31,8.91,6.24,10.48,7.64,24.72,19.75,32.09,30.3,1.04,1.48,3.59,5.6,4.46,7.13,1.75,3.08,3.9,7.45,5.35,10.69,2.51,5.63,4.85,12.79,7.13,18.71,1.91,4.96,3.13,10.71,6.24,15.15.77,6.8,5.79,15.05,8.02,21.39,2.1,5.96,4.08,11.88,6.24,17.82,1.18,3.24,1.53,6.88,3.57,9.8-.1,3.63,2.66,6.28,3.57,8.91,2.07,5.97,4.14,11.88,6.24,17.82,4.37,12.35,8.98,24.33,13.37,36.54,2.21,6.14,3.99,12.52,6.24,18.71,4.41,12.17,9.06,24.34,13.37,36.54,2.05,5.8,4.62,11.69,5.35,17.82-108.29,2.52-218.63.02-327.15,0,1.05-9.22-10.86-6.78-10.7,0-94.47-.02-188.99.02-283.47,0-.84-.85,4.48-15.39,5.35-17.82,1.06-2.94,2.52-5.92,3.57-8.91,1.15-3.27,2.41-6.53,3.57-9.8,2.06-5.82,3.4-12.15,5.35-17.82,2.14-6.22,5.16-11.57,7.13-18.71.43-1.56,1.8-3.32,1.78-5.35,2.57-3.86,3.81-8.98,5.35-13.37,2.08-5.92,4.05-11.94,6.24-17.82,4.49-12.03,8.75-24.74,13.37-36.54,2.25-5.75,4.78-12.01,7.13-17.82,1.43-3.53,2.99-7.15,4.46-10.69,1.08-2.62,2.43-5.35,3.57-8.02,2.5-5.91,5.36-11.96,8.02-17.82,5.94-13.1,10.96-24.26,18.72-36.54,1.44-2.28,4.05-7.29,5.35-8.91,1.06-1.33,7.55-7.8,8.91-8.91,2.07-1.69,7.11-4.3,9.81-6.24,12.06-8.67,24.83-16.25,37.44-24.06,3.29-2.04,6.52-4.22,9.81-6.24,2.36-1.45,4.9-3.1,7.13-4.46,6.22-3.78,12.73-7.95,18.72-11.59.58-.35,2.45-.56,4.46-1.78,4.97-3.04,9.72-7.1,14.26-9.8,5.16-3.07,10.83-4.69,16.94-4.46,4.62.17,11.76,2.63,16.59,2.73,1.92.04,1.91-.5,3.02-.95,2.83-1.14,4.43-2.93,4.45-6.23-1.77-.72-3.61-.62-5.35-.9-12.13-1.95-24.35-3.84-36.55-5.35-5.91-.73-11.91-1.16-17.83-1.78-6.41-.68-13.1-1.14-19.61-1.78-2.52-.25-5.03.58-7.49-.98-.89-.56-4.3-6.53-4.99-7.93-2.19-4.48-3.1-9.96-5.8-14.26-2.28-.34-1.15,1.47-.93,2.73.65,3.84,1.58,7.71,2.28,11.54.5,2.76.79,5.35,1.78,8.02-.86.11-1.88-.15-2.67,0-5.88,1.12-11.91.95-17.83,1.78-6.57.93-12.99,2.92-19.61,3.57-.39,1.81,1.39,3.23,1.79,4.45,2.58,8.02,4.45,11.56,8.02,18.71.26.53.06,2.06.69,3.28,1.43,2.74,4.31,5.06,4.65,8.3-.5.45-11.87-1.41-13.37-1.78-5.19-1.29-13.86-5.44-18.72-8.02-1.6-.85-4-1.84-5.35-2.67-2.95-1.82-9.24-7.21-11.59-9.8-.65-.72-3.33-3.76-2.67-4.45,3.07.04,4.43,4.23,6.82,5.21,1.11.45,2.51.58,2.06-1.15-8.37-25.61-12.22-52.17-15.13-78.91-2.03-2.4-3.36,5.97-3.45,6.79-1.72,15.97.89,42.98,5.49,58.45.73,2.46,2.95,5.53,3.32,7.38.6,3-2.61.58-3.58-1.33-1.38-2.71-4.74-14.58-5.35-17.82-.98-5.27-1.33-13.13-1.78-18.71-.48-5.9-.8-11.9-.89-17.82-.1-6.19-.2-12.53,0-18.71.17-5.18,1.55-12.43,1.78-17.82.27-6.2-.17-12.5,0-18.71,0-.16.98-1.4.99-3.05.03-6.52-2.85-6.06-6.34-9.42-1.76-1.7-3.83-3.42-5.35-5.35-2.91-3.69-8.26-13.38-8.91-17.82-.68-4.63-.22-13.7,0-18.71.31-7.05.89-11.86,2.67-18.71,1.68-6.47,3.82-11.96,7.13-17.82.96-1.7,2.45-4.93,3.57-6.24,1.41-1.67,7.03-5.12,7.58-6.22,1.47-2.94-.32-4.07-.45-5.36-.61-6.33-2.01-12.72-2.67-18.71-.65-5.87-1.28-11.95-1.78-17.82-1.69-19.63-1.09-39.16-1.78-58.82,1.91-4.13.52-9.62.89-14.26.46-5.76,1.75-12.71,2.67-18.71.92-5.97,2.3-11.92,3.57-17.82,1.36-6.32,2.71-12.49,4.46-18.71,1.56-5.53,3.44-12.52,5.35-17.82.49-1.37,1.22-2.98,1.78-4.46,1.79-4.69,4.19-9.63,6.24-14.26,2.47-5.59,5.25-12.57,8.02-17.82.61-1.16,2.51-3.47,3.57-5.35,2.3-4.1,4.65-8.51,7.13-12.48,2-3.19,10.27-12.7,10.7-15.15,1.76-.68,2.46-2.28,3.57-3.56,4.42-5.14,9.49-11.4,14.26-16.04,5.01-4.87,13.15-11.79,18.72-16.04,1.68-1.28,4.41-3.18,6.24-4.46,3.73-2.61,7.67-4.83,11.59-7.13,11.26-6.59,24.22-13.57,36.55-17.82,4.67-1.61,14.05-4.42,18.72-5.35,4.66-.92,12.91-1.56,17.83-1.78,6.25-.29,12.53.07,18.72.89,10.6,1.41,6.76,2.31,17.83,0,19.85-4.15,34.31-4.71,54.38-.89ZM432.74,285.7c-.82-.73-9.25,2.96-10.86,3.65-7.37,3.2-13.01,7.59-19.19,11.47-18.14,11.4-32.86,20.81-47.06,37.44-19.92,23.32-33.2,50.53-43.94,79.12-1.51,2.26,3.01,9.17,5.17,7.34.25-.21,1.08-5.16,1.8-6.24,2.26-.4,2.81,2.7,4.87,2.67,1.75-.02,5.09-3.31,7.24-3.57,2.48-.29,3.36-.11,6.31-.62,1.02-.17,2.52.86,2.91.6,1.03-.69,8.2-19.66,9.71-22.86,1.53-3.23,8.78-13.49,7.11-16.16-.26-.41-1.95-.41-2.37-1.61-.66-1.89.34-8.76-.14-9.25-3.59-.71-4.92,3.16-8.01,3.56-.76-.77,3.78-7.15,4.6-8.31,19.66-27.89,45.63-49.82,72.74-70.07.96-.71,10.63-5.81,9.11-7.16ZM650.02,312.68c-.87-.38-5.12-1.04-4.23,1.07,4.35,6.63,16.89,15.57,19,22.89,1.96,6.79-1.12,18.12,1.27,23.68,1.2,2.8,8.82,11.61,11.29,15.45,2.03,3.15,4.92,10.54,6.69,12.69s8.04.19,11.16.66c2.13.32,3.73,2.05,6.32,1.84,1.95-.16,1.14-1.73,1.32-1.86,1.96-1.46,1.95,2.35,2.74,3.89,9.67,18.65,17.81,37.09,23.73,57.39l10.94,42.96c-2.77-44.83-15.42-91.06-40.09-128.79-11.57-17.7-30.77-40.16-49.27-50.37-.54-.3-.64-1.39-.89-1.49ZM677.92,393.49c.87.52,2.31-.5,2.56-1.43.63-2.35-12.12-21.82-14.62-24.39-.93-.96-1.56-2.09-3.13-1.77-.15,3.88,3.35,6.3,5.17,9.53,2.49,4.4,4.5,10.31,7.11,14.3.27.42,2.71,3.63,2.91,3.75ZM671.64,390.85c1.58-1.46-8.14-15.91-10.26-17.8-3.43,6.53-7.54,11.47-12.78,16.6-.36,1.86,5.05,9.13,6.55,11.02,2.08.53.89-1.88,2.23-3.09.69-.62,5.56-2.81,7.07-3.65,2.27-1.26,3.01-4.25,7.19-3.07ZM360.53,390.86c-1.5-1.79-6.84,9.18-7.28,10.09-1.44,3-8.73,20.27-6.97,21.99.1.1,2.51.35,2.74-.56,2.11-8.94,8.72-18.66,11.1-27.05.43-1.5.56-2.93.42-4.48ZM363.2,401.55c-1.28-1.31-1.54.35-1.98,1.14-2.87,5.2-4.81,12.25-6.99,17.8-.26.67-1.76.84-1.73,1.1.44,3.63,2.5,1.37,4.05,1.46,2.57.15,8.06,2.22,9.98,3.42,3.87,2.41,5.48-4.55,6.09-7.95,1.2-6.6-2.8-5.48-6.23-9.91-1.4-1.81-2.92-6.79-3.2-7.06ZM377.63,417.74c-.73.61-5.74,16.37-5.58,18.12.31,3.52,1.95,4.35,3.82,1.07,2.05-3.6,5.51-14.78,6.05-18.92.27-2.09-4.11-.42-4.29-.27ZM413.12,451.46c-.49-6.58,5.03-19.94,4.47-25.39-.12-1.18-5.11-7.54-6.23-6.69-2.04,1.54-5,27.77-3.57,32.08,1.86.05-.18-2.28,2.21-1.79.72.15.2,2.81,3.11,1.79ZM624.39,521.86c-1.36,13.96-3.57,28.26-7.79,41.67-.6,1.91-4.98,14-5.59,14.47-2.56,1.95-2.47-4.25-2.66-4.46-.31-.33-7.67,1.09-8.93,1.32-12.37,2.29-26.91,8.33-37.22,15.32-1.3.88-1,2-1.1,2.06-1.55.99-2.15-.36-.87-1.76l-4.47.88-2.67-1.78c5.01-28.16,5.92-56.33,1.78-84.67-2.44-.13-5.73.3-6.24,3.12.33,5.97-.96,11.4-.89,17.38.02,1.78-.07,3.57,0,5.35-1.81,3.26-.64,7.79-.89,11.59-.42,6.31-5.4,45.49-8.92,47.67-1.29.8-5.26.95-7.12,1.35l-30.3-4.91c-6.34-2.66-13.99-2.53-17.39-9.35-1.27,2.82-.41,4.97,1.34,7.13l1.77,9.8c-1.51-.64-2.49-2.34-3.56-3.56-9.09-10.45-16.55-27.1-21.41-40.53-1.83-5.07-3.6-10.26-4.45-15.61-1.64.63-.96,5.21-.87,6.67.35,5.64,1.15,15.08,2.67,20.06l5.51,27.02c2.7,2.5,6.02,3.8,8.86,6.31.85.75,2.26,0,1.67,2.31l-8.47-5.34-.44,2.67c-5.9.45-10.25-5.94-14.01-7.83-3.12-1.56-26.86-5.65-27.88-4.65.13,1.81.28,4.97,1.07,6.5,1.15,2.25,15.21,4.14,18.92,5.15,12.09,3.29,25.19,9,35.28,16.43l-1.77,1.76c2.71,3.16,7.34,5.61,7.12,10.25-.17.22-2.1-1.4-2.67-1.78-1.36-.92-7.65-5.72-8.91-4.45.09,3.1,1.14,5.7.89,8.91-.12,1.51-2.35,9.57-3.56,10.32-1.29.8-6.7-2.24-8.02.83-1.62,3.75,4.86,1.74,4.47,4.46-.24,1.67-4.83,5.91-6.34,7.04-19.01,14.19-50.58,5.18-56.97-18.19,16.18.88,10.32-13.24-2.67-7.13.13-1.53-.76-3.05-.9-4.46-.55-5.62.86-10.6,1.78-16.04-5.16.76-33.29,4.51-34.64,8.61-1.38,4.19,1.51,10.8,2.55,14.56.19.69-.1,1.85.21,2.87.95,3.12,3.84,8.15,4.24,10.96.25,1.74-.33,1.41-1.76,1.31-2.5-4.43-5.96-7.89-8.5-12.45-3.42-6.13-5.05-12.06-7.16-18.69l-11.99-6.28v20.05c0,1.18,1.76,4.46-1.77,4.01-4.9-10.63-7.45-17.89-19.02-22.44-22.63-8.9-33.44,5.64-38.87,25.63-6.14,22.59-6.58,45.37,12.4,61.44,11.66,9.87,46.92,27.28,61.89,25.31,2.92-.39,16.71-7.19,17.37-9.42.9-3.06-9.73-20.78-11.49-24.82l2.22-.46,27.72,48.94c24.64,24.64,59.89,36.91,91.92,47.05,13.15,4.16,31.59,11.32,45.16,9.97,23.66-2.36,83.32-36.85,102.6-52.5,14.38-11.67,24.05-25.93,32.71-42.15,2.16-4.04,9.09-21.18,11.2-22.89.29-.23,1.94-.97,2.01-.88.84,2.32-1.44,1.39-1.75,2.41-.32,1.05.06,2.5-.45,3.83-.58,1.5-4.34,9.21-3.98,9.73,8.64,5.38,14.15,9.76,25.15,7.88,9.96-1.7,38.86-21.62,46.59-29.17,12.55-12.26,17.05-21.8,15.56-39.67-2.11-25.32-17.1-61.67-48.05-41.83-8.56,5.49-10.67,13.06-13.43,22.24-.38,1.27.56,1.58-1.79,1.31-2.28-13.55-2.14-28.54-5.36-41.88l4.44,2.24c-3.5-14.95-9.66-28.94-16.92-42.34-2.04-3.76-3.68-8.14-6.24-11.59,8.16,2.64,13.21,11.45,22.27,12.04-10.24-25.41-26.11-48.44-46.33-66.85,3.32-1.25,9.39,3.07,12.01,3.14.78.02.58-1.66.46-1.78-.33-.35-6.89-3.41-8.48-4.45-13.97-9.11-26.9-19.51-37.86-32.1,1.97,10.29,4.59,20.48,6.1,30.87,3.33,22.89,4.15,45.94,1.91,68.94ZM530.69,443.34c1.43-1.63-1.19-14.91-2.15-17.72-.3-.86-.11-2.05-1.3-1.79.04,4.96-10.73,7.42-11.46,9.49-1.31,3.75,2.07,12.64.75,17.23,3.26.5,4.36-2.76,6.83-4.3,1.81-1.13,7.06-2.62,7.32-2.92ZM463.05,427.4c-1.45-.3-1.85.38-2.55,1.45-2.72,4.14-2.29,23.53-1.94,29.33.2,3.34,1.36,14.23,2.71,16.68.37.67,2.58,1.68,2.67,1.56l-.89-49.01ZM512.08,452.35v-12.92c0-.19-1.1-3.15-1.41-3.19-13.98,2.86-28.79.3-40.47-7.95-3.54,8.03-2.67,16.6-.86,24.93,3.25-1.53,5.7.65,8.25.61,7.27-.1,16.72-2.87,23.32-3.13,2.89-.11,8.06,1.27,11.17,1.64ZM307.04,437.2c-.1-.09-1.9-.35-1.77.47.07,4.32-5.76,23.66-4.3,26.09.09.15,2.81,1.88,2.98,1.94,2.03.75,1.36-4.33,2.81-5.19.06-3.87,5.3-16.93,3.68-19.58-.2-.32-1.76-.72-2.53-1.48-.7-.69-.72-2.13-.87-2.26ZM423.82,589.58l-4.56-8.79c-.44-.32-1.87-.18-2.56-.11v-.89c.58,0,1.92.25,1.77-.41-.99-4.32-4.61-10.73-6.22-15.63-8.37-25.46-13.94-54.83-15.19-81.51-.66-14.05.93-28.35-.41-42.38-7.99,23.39-23.62,44.38-41.45,61.06,3.25,1.17,6.4-2.93,9.78-2.69-9.11,12.5-14.69,26.82-20.47,41.02-.37,1.09.22,1.79,1.31,1.31,2.3-1,4.95-8.95,9.37-8.01-3.62,9.9-7.52,19.96-9.8,30.3-1.9,8.62-3.13,17.95-3.56,26.73l2.67-4.45v12.92c0,.2.85,1.72,1.14,1.99,1.35,1.26,9.55.55,11.72.17,6.42-1.13,12.44-5.65,19.23-5.28,1.99-1.69-8.03-5.27-8.02-7.12,6.14-.21,12.28,3.95,18.41,4.11,4.61.12,11.78-2,16.81-2.33,6.61-.43,13.42.3,20.04-.01M578.04,572.66c-.27,1.14-3.35,6.67-.46,6.23,8.69-4.54,21.76-4.16,30.16-7.29.7-.26,1.22-.48,1.39-1.28,1.61-32.38-2.72-64.65-10.83-95.88-1.19-4.56-9.55-33.48-11.79-34.56-1.87-.35-1.47.72-1.15,2.04,1.99,8.38,2.95,17.32,3.39,26.03.27,5.46-1.12,20.12.13,23.93.75,2.29,4.29,1.13,6.35,1.67,1.3.34,3.84,1.44,5.1,2.07,1.26.63,2.25-.22,1.79,2.17-4.4-1.25-8.72-2.27-13.37-1.78-.97,18.85-2.76,37.61-6.24,56.15-1.29,6.89-2.85,13.69-4.46,20.5ZM548.62,496.91c8.36-.74,2.4-11.52,2.24-16.94l-2.24-7.12v24.06ZM425.61,498.68c-1.82-7.06-1.64-14.68-2.76-21.75-.15-.92-.36-3.33-1.69-3.19l-1.79,25.84,6.24-.9ZM421.15,564.64c-.09,4.23.98,8.38,1.78,12.48.15.79-.12,1.82,0,2.67,8.17-.78,17.78,3.29,25.43,3.55,1.08.04,2.88.48,2.2-1.31-.66-1.73-3.48-5.3-4.6-7.88-9.99-22.91-13.53-41.01-18.79-65.03-.94-4.28-8.01-4.73-8.69-1.08-1.75,9.44,1.33,23.88-.04,33.9l2.71,22.69ZM456.79,617.21c6.26-10.76-6.12-7.64-5.3-4.07.16.7,4.29,4.76,5.3,4.07ZM440.76,616.32c-.18-.41.54-3.85-1.32-2.67-1.24.78-.96,2.74-1.63,3.33-.44.39-1.78.04-2.14.48-.73.91-2.38,4.26-2.05,5.42.18.63,1.73.48,1.77,1.1.04.64-.8,1.7-.63,2.46.24,1.1,2.19,3.52,1.54,4.13-1.7,1.58-3.35-3.1-5.34-1.78.99,7.3-2.13,3.05-2.67,3.57-1.81,1.74,2.76,1.81,1.77,2.66-.91.78-3.93.91-4.75,2.89-2.64,6.41.25,5.16,2.43,6.83.19.15,2.06,2.15,2.95,2.98.61.57.29,2.35,1.08,2.96.41.32,8.95,1.35,10.27,1.32,7.8-.21,14.17-6.02,15.68-13.4,4.94,2.3-1.42-3.22-1.75-4.23-.4-1.26.03-3.14-.43-4.78-.4-1.41-3.87-3.54-3.42-6.8l-10.47-5.57c-.1-.24-.72-.52-.89-.89ZM734.03,795.45c.5-.46,2.96-11.41,3.31-13.19,4.36-22.44,6.4-58.11,4.77-80.88-.11-1.53.09-2.95-1.39-3.96-4.05,32.01-6.88,64.23-13.83,95.78.83,1.13,2.67-.75,3.93-.39,1.17.33,1.52,4.21,3.2,2.63ZM591.41,793.67c-.67-9.87.23-19.7,1.78-29.4l-23.74,12.35c-11.74,5.02-23.53,11.29-36.54,12.49-18.46,1.71-33.8-5-51.14-9.68,9.77,24.9,1.92,49.97-24.96,57.93-.35,2.82,2.97,3.28,4.45,4.44,23.42,18.39,70.58,36.2,100.32,34.79,22.59-1.07,69.49-12.49,88.4-24.77,3.54-2.3-.68-1.77-2.44-2.4-14.82-5.24-46.14-21.93-52.46-36.68-1.95-4.55-3.32-13.99-3.67-19.06ZM618.15,1027.16c-1.46-1.6-1.52.3-1.75,1.35-.51,2.34-.97,4.44-1.8,6.67,3.41-1.94,2.19,1.94,6.23.89v-2.67s-2.66.89-2.66.89c.63-1.4.79-6.25-.02-7.13ZM611.9,1028.94c-2.89-2.79-.87,6.7-.87,7.12,2.41-.36,1.68-6.34.87-7.12ZM623.5,1047.66c-.2-.2-4.42-1.26-5.35-1.79v5.34c.37-1.01,7.36-1.48,5.35-3.56ZM602.55,1049.44v.89c.58-.3.58-.59,0-.89ZM598.17,1052.51c-.46-.29-2.04-1.54-2.3-1.29.79,1.5-.23,3.68-.01,4.74.15.76,2.72.41,1.78,2.82-.67,1.72-4.81,1.65-6.47,1.3-1.04-.22-2-3.43-3.32-3.51-1.18,2.48.1,5.86,0,7.5-.02.34-2.41,2.93-2.66,5.45-.19,1.95,1.35,4.91-.03,7.54-3.15-.12-2.5-3.34-2.69-3.53-.16-.16-4.33-.24-4.43-.04-.42.84.49,3.79-.1,4.41-1.02,1.07-4.12-2.47-1.23,5.38l-4.02-2.65-.88,4.44c-1.19-1.16-2.41-6.87-2.69-7.13-.21-.2-2.77,2.48-4.01-1.77-1.57,5.14-2.57-3.06-3.19-3.49-5.06-3.51-8.24,13.21-8.75,16.5-1.45,9.29-1.24,19.59-.08,28.87,2.52,1.05,1.19-2.6,3.1-1.77,4.14,1.8,1.94,5.76,2.25,6.2,1.6,2.28,4.63-.84,4.9-.84.59,0,1.03,2.02,1.58,2.39,4.22,2.79,3.73,2.16,7.75,6.11,1.52,1.49,3.46.68,1.79,3.07,1.81-.7,8.75-.1,9.66-1.09.35-.38-.09-1.78.35-2.26.65-.7,4.01.13,3.37-4.66l1.76,1.77c-.99-2.23,1.74-6.09,3.57-4.45.42.38-.98,2.36-.94,3.07.03.55,1.94.47,1.85.92-.86,4.23-5.59-.34,1.23,6.83,1.09,1.15.4,3.48,4.54,3.44,2.09-3.72-3.45-6.46-3.98-9.39-.18-1-.74-8.01-.65-8.78.18-1.63,2.08-2.74,1.4-5.26-.76-2.83-6.19-3.79-5.05-10.66.1-.6,1.8-5.46,2.09-5.99,1.73-3.13,6.02-1.32,8.86-1.84,4.12-.76,6.04-13.94,9.38-17.45.49-2.68-1.59-1.93-1.78-2.73-1.07-4.4,1.92-4.04,2.46-4.95.65-1.1-.18-3.18.59-4.33.85-1.27,4.95-.19,4.98-3.05-.89-1.24-3.5,1.12-4.44.43-.15-.11-1.12-3.35-.92-3.55.11-.12,2.44.1,3.17-.84,3.15-4.02-3.92-1.35-3.18-4.51l-.89,2.66c-1.46.38-.41-1.53-1.45-1.8-3.83-.98-3.78,1.34-4.13,1.51-4.41,2.07-3.03-2-3.36-2.3-.47-.42-2.65.14-3.78-.1-.69-.15-.71-1.17-1.01-1.36ZM601.66,1052.11v.89c.58-.3.58-.59,0-.89ZM502.41,1079.62c-.11-.16.87-2.18.61-3.65-.15-.87-1.72-5.64-2.07-6.05-.89-1.06-4.51-1.25-4.89-.85-.25.26.29,2.53-.44,3.58-.65.94-2.61.47-3.24,1.41s-.39,3.21-.98,3.73c-.39.34-9.46,2.91-10.02,2.88-.46-.03-.53-3.17-2.27-1.82-.28.21-.45,3.12-.88,3.87-.54.95-1.89.16-2.7,1.22-.55.71-2.06,4.96-1.85,5.91.14.66,1.95,1.1,2.78,1.89.62.59.75,2.07.94,2.19.32.2,1.47-.86,2.06-.83.67.03.52,1.77,1,1.84,1.96.3,3.37-2.1,4.42-1.84.87.21,1,2.56,1.96,2.75,1.59.32,3.59-1.14,5.09-1.01.43.04.87,3.03,3.22,1.83-.82-2.7-3.17-4.98-2.64-7.97,2.89-.85,5.1-.74,7.99-.03-1.95,3.95.36,3.29.58,3.84.42,1.04.16,2.15.63,2.96.54.94,3.21,3.3,3.32,4.3.4,3.58-1.28,6.88-1.87,10.27,4.16-.55,13.41,8.08,11.23-.95-.96-3.99-7.94-24.98-9.6-27.88-.74-1.28-2.21-1.34-2.38-1.59ZM487.54,1096.1l-1.67,3.97,1.72.72,1.67-3.97-1.72-.72ZM516.54,1118.05l-1.77-3.55c.44,1.56-2.9,2.96-4.03,3.1-1.73.22-5.58-2.06-4.9,1.34l10.7-.89Z"/>
        <path class="cls-6" d="M502.41,1079.62c.17.24,1.64.3,2.38,1.59,1.66,2.9,8.64,23.88,9.6,27.88,2.18,9.03-7.07.4-11.23.95.59-3.39,2.27-6.69,1.87-10.27-.11-1.01-2.78-3.36-3.32-4.3-.47-.82-.21-1.92-.63-2.96-.22-.54-2.52.12-.58-3.84-2.89-.71-5.11-.81-7.99.03-.53,2.99,1.82,5.27,2.64,7.97-2.34,1.21-2.78-1.79-3.22-1.83-1.5-.13-3.5,1.33-5.09,1.01-.96-.19-1.09-2.54-1.96-2.75-1.05-.26-2.45,2.15-4.42,1.84-.48-.07-.33-1.82-1-1.84-.59-.02-1.74,1.03-2.06.83-.19-.12-.32-1.6-.94-2.19-.83-.79-2.64-1.23-2.78-1.89-.2-.96,1.31-5.2,1.85-5.91.81-1.06,2.15-.27,2.7-1.22.43-.75.6-3.65.88-3.87,1.74-1.35,1.81,1.79,2.27,1.82.56.03,9.63-2.54,10.02-2.88.59-.52.35-2.79.98-3.73s2.59-.47,3.24-1.41c.73-1.05.19-3.32.44-3.58.38-.4,4-.21,4.89.85.35.41,1.92,5.19,2.07,6.05.26,1.47-.73,3.49-.61,3.65Z"/>
        <path class="cls-6" d="M618.15,1027.16c.8.88.65,5.73.02,7.13l2.66-.89v2.67c-4.04,1.05-2.82-2.83-6.23-.89.83-2.23,1.29-4.33,1.8-6.67.23-1.04.29-2.95,1.75-1.35Z"/>
        <path class="cls-6" d="M623.5,1047.66c2.01,2.08-4.97,2.55-5.34,3.56v-5.34c.93.53,5.14,1.58,5.34,1.79Z"/>
        <path class="cls-6" d="M611.9,1028.94c.81.78,1.54,6.76-.87,7.12,0-.42-2.02-9.91.87-7.12Z"/>
        <path class="cls-6" d="M602.55,1049.44c.58.3.58.59,0,.89v-.89Z"/>
        <path class="cls-6" d="M601.66,1052.11c.58.3.58.59,0,.89v-.89Z"/>
        <path class="cls-6" d="M734.03,795.45c-1.69,1.58-2.03-2.3-3.2-2.63-1.26-.35-3.1,1.52-3.93.39,6.95-31.56,9.78-63.78,13.83-95.78,1.48,1.01,1.28,2.43,1.39,3.96,1.63,22.76-.41,58.44-4.77,80.88-.35,1.78-2.81,12.72-3.31,13.19Z"/>
        <path class="cls-6" d="M633.31,795.45h-4.46c.9-2.12,4.86-17.85,5.79-17.83,1.52,5.99-.32,12-1.34,17.83Z"/>
        <path class="cls-8" d="M384.61,795.45c-.7-3.83-1.63-7.7-2.28-11.54-.21-1.25-1.34-3.07.93-2.73,2.7,4.31,3.61,9.79,5.8,14.26h-4.46Z"/>
        <path class="cls-6" d="M475.53,813.27c1.74.28,3.58.18,5.35.9-.02,3.3-1.62,5.09-4.45,6.23-1.78-1.54-.61-4.9-.89-7.13Z"/>
        <path class="cls-8" d="M624.39,521.86c2.71.52,1.56-1.32,1.9-2.95,4.58-21.85,4.12-44.45,1.67-66.56l34.32,36.53c3.5,4.08,14.24,16.67,15.57,20.97,1.26,4.07-6.22-3.14-7.11-2.24-.5,2.4,2.73,3.33,3.56,4.45,2.56,3.45,4.2,7.82,6.24,11.59-1.8.55.05,2.63.41,3.6,3.94,10.54,9.48,25.82,12.07,36.51,3.22,13.35,3.08,28.33,5.36,41.88,2.34.27,1.4-.04,1.79-1.31,2.76-9.17,4.87-16.75,13.43-22.24,30.95-19.84,45.94,16.51,48.05,41.83,1.49,17.87-3.01,27.41-15.56,39.67-7.73,7.55-36.63,27.47-46.59,29.17-11,1.87-16.51-2.5-25.15-7.88-.36-.52,3.4-8.23,3.98-9.73.51-1.33.13-2.79.45-3.83.32-1.02,2.59-.09,1.75-2.41-.07-.08-1.72.65-2.01.88-2.11,1.7-9.04,18.85-11.2,22.89-8.67,16.22-18.34,30.48-32.71,42.15-19.27,15.65-78.94,50.14-102.6,52.5-13.57,1.35-32.01-5.8-45.16-9.97-32.03-10.15-67.28-22.41-91.92-47.05l-27.72-48.94-2.22.46c1.76,4.04,12.39,21.76,11.49,24.82-.65,2.23-14.44,9.03-17.37,9.42-14.97,1.98-50.23-15.44-61.89-25.31-18.98-16.07-18.54-38.85-12.4-61.44,5.43-19.99,16.24-34.52,38.87-25.63,11.56,4.55,14.12,11.8,19.02,22.44,3.53.45,1.77-2.83,1.77-4.01v-20.05l11.99,6.28c2.1,6.63,3.74,12.56,7.16,18.69,2.54,4.56,6.01,8.02,8.5,12.45,1.43.09,2.01.43,1.76-1.31-.4-2.81-3.29-7.83-4.24-10.96-.31-1.03-.02-2.18-.21-2.87,9.53-4.18,19.83-6.73,30.31-7.13.14,1.41,1.03,2.92.9,4.46,12.98-6.11,18.84,8.01,2.67,7.13,6.39,23.37,37.96,32.38,56.97,18.19,1.51-1.13,6.1-5.37,6.34-7.04.39-2.72-6.09-.72-4.47-4.46,1.33-3.07,6.73-.03,8.02-.83,1.2-.74,3.44-8.81,3.56-10.32l7.13,4.45.9-8.91c.57.38,2.5,2,2.67,1.78.22-4.64-4.41-7.09-7.12-10.25l1.77-1.76c-10.09-7.43-23.18-13.14-35.28-16.43-3.7-1.01-17.77-2.9-18.92-5.15-.78-1.54-.94-4.69-1.07-6.5,1.02-.99,24.76,3.09,27.88,4.65,3.77,1.89,8.11,8.27,14.01,7.83l.44-2.67,8.47,5.34c.59-2.31-.82-1.56-1.67-2.31-2.84-2.5-6.17-3.81-8.86-6.31l-5.51-27.02c1.95,6.39,12.39,23.84,16.96,28.94,2.83,3.15,4.2,4.93,7.11.47,1.07,1.23,2.04,2.93,3.56,3.56l-1.77-9.8c.77.94,6.21,6.94,6.64,7.18,3.07,1.76,16.79.77,21.48.81,7.73.06,9.85.94,18.24-.85,1.86-.4,5.83-.55,7.12-1.35,3.53-2.18,8.5-41.36,8.92-47.67.5-.08,1.67.15,1.78,0,.31-.41.05-8.68-.02-10.27-.07-1.42-.86-1.24-.87-1.32-.07-1.77.02-3.57,0-5.35,3.82.27,2.43,7.81,2.64,10.29.1,1.14.93,2.34.93,2.64v48.12c0,.8-1.7,3.21-.88,4.9l2.66-1.78,2.67,1.78,4.47-.88c-1.28,1.4-.68,2.75.87,1.76.1-.06-.2-1.18,1.1-2.06,10.31-6.99,24.85-13.03,37.22-15.32,1.26-.23,8.62-1.65,8.93-1.32.2.21.1,6.41,2.66,4.46.62-.47,4.99-12.56,5.59-14.47,4.22-13.41,6.43-27.72,7.79-41.67ZM666.29,610.09c-.91,5.81-2.1,11.34-3.56,16.93,4.31-3.93,8.03-10.57,10.23-16.06,1.85-4.61,3.4-15.65,4.86-18.09.68-1.13,11.63-6.2,9.86-7.74-11.17.71-22.01-2.16-32.98-3.57-.53-2.35.6-1.39,1.3-1.85,1.09-.71,6.21-2.46,4.48-4.4-4.98.7-9.21,3.92-14.24,4.48-6.37.7-12.52-1.01-18.76-.93-4.72.06-12.66,2.28-16.94,1.92-1.93-.16-1.06-2.29-1.74-1.89-2.6,4.16-10.44,4.27-15.41,5.98-19.2,6.62-33.34,12.27-43.32,30.66-.44.82-1.33,2.55-1.01,3.44,1.66-1.15,3.31-2.32,4.91-3.55v9.8c.81.94,7.97-5.53,8.91-6.23,2.75-2.05,4.7-3.82,8.71-2.08,1.87.81,2.63,5.83,1.96,6.51-.72.75-9.84,1.21-11.56.03,3.61,14.87,16.56,22.57,31.19,23.17,1.17.05,2.39.05,3.57,0,11.44-.46,24.83-5.73,29.42-16.92-1.26.24-8.05-1.94-6.24-3.57.16-.14,1.64.31,2.38-.24.64-.48.66-1.92,1.74-2.29,1.98-.67,5.2.36,7.32-1.19.35-5.11,2.83-10.8,2.82-15.89,10.86-.7,21.34,2.72,32.09,3.56ZM689.02,584.24v.89c.58-.3.58-.59,0-.89ZM697.49,655.54c-4.8,3.24-9.79,7.72-7.63,14.31,1.21,3.69,3.97,2.96,6.74,3.52,9.4,1.88,17.2-1.57,23.18-8.91,4.21-5.17,6-9.33,7.13-16.04,1.48-8.71,1.68-23.66-9.81-25.84,2.15-4.54,2.42-13.63,8.91-8.91,1.59,3.98,5.18,8.51,9.81,8.91,3.5.3,5.51-2.17,8.91-1.79l.9,14.26c2.86-1.11,2.25-4.08,2.67-6.24,1.53-8-.39-19.47-4.46-26.74,3.91-1.78,2.11-6.57-.25-8.69-.48-.43-1.31-.09-1.53-.22-7.21-4.06-14.21-1.54-20.42,3.2-8.66,6.6-20.21,25.3-18.72,36.39.58,4.26,4.16,7.84,3.32,12.32-.98,5.2-6.3,6.32-8.75,10.48ZM476.41,598.5c.64-1.25-.56-2.38-.87-1.77-.64,1.25.56,2.38.87,1.77ZM356.08,680.49c-4.65-5.05-17.33-6.2-16.89-14.57.18-3.35,2.51-6.48,3.12-9.43,2.62-12.55-15.26-37.56-27.9-39.95-5.03-.95-15.77.31-17.92,5.72-2.11,5.3,4.43-1.15,4.9-1.34,4.71-1.91-.05,3.35-.43,4.02-5.89,10.26-7.8,25.31-5.5,36.84.01,1.65.91,5.5,2.67,6.23-.22-2.07,1.25-15.43,1.83-15.99.43-.41,5.57.16,7.09-.05,4.54-.61,9.97-7.62,11.59-11.59,6.94-.06,7.17,4.66,4.46,9.8-.64,1.21-2.93,3.06-4.04,5.32-3.25,6.58-4.22,13.44-2.2,20.53,2.86,10,9.12,14.65,17.83,18.71,7.61,3.55,15.98,7.43,23.18,0,2.46-2.54,2.35-4.55,1.72-8.41-.6-3.72-3.07-2.97-3.51-5.85ZM636.87,658.22c-7.19,1.82-13.52,6.19-21.04,7.03-10.11,1.12-18.79-1.14-28.4-1.72-.97-.06-3.38-.57-3.14.92,17.49,4.22,38.28,6.64,52.59-6.22ZM583.39,662.67c-1.25-.64-2.38.56-1.77.87,1.25.64,2.38-.56,1.77-.87ZM452.35,670.69c-12.42,1.4-22.15,4.84-34.79,2.25-1.4-.29-13.28-4.59-13.35-2.71,13.26,7.73,30.08,6.98,44.37,2.46,1.08-.34,3.77-.67,3.77-2.01ZM513.86,682.28l-4.33,5.98c-.85,2.97,3.31,4.27,4.19,1.45.65-2.09-.12-5.16.14-7.43ZM522.77,725.06c-8.53-3.32-17.58-5.67-26.74-3.57-1.4,1.14.13,1.65,1.35,1.8,3.2.39,6.32-1.12,9.77-.93,4.21.23,8.65,2.49,12.72,3.38.9.2,3.13.9,2.9-.67Z"/>
        <path class="cls-8" d="M591.41,793.67c.34,5.07,1.72,14.51,3.67,19.06,6.32,14.76,37.64,31.44,52.46,36.68,1.76.62,5.99.1,2.44,2.4-18.91,12.28-65.81,23.71-88.4,24.77-29.74,1.41-76.9-16.4-100.32-34.79,4.86-1.57,16.42-10.74,20.27-11.45,2.75-.51,13.28,3.77,17.73,4.21,18.27,1.82,40.34-9.95,56.2-18.45,12.49-6.7,24.06-14.79,35.95-22.43Z"/>
        <path class="cls-6" d="M461.27,841.79c-1.49-1.17-4.8-1.62-4.45-4.44,26.88-7.96,34.73-33.04,24.96-57.93,17.33,4.69,32.67,11.39,51.14,9.68,13-1.2,24.8-7.47,36.54-12.49l23.74-12.35c-1.54,9.7-2.45,19.53-1.78,29.4-11.89,7.64-23.46,15.73-35.95,22.43-15.86,8.51-37.93,20.27-56.2,18.45-4.45-.44-14.98-4.72-17.73-4.21-3.85.71-15.41,9.88-20.27,11.45Z"/>
        <path class="cls-6" d="M412.24,563.74c-1.99.22-1.87-1.12-2.53-2.33-13.38-24.22-18.52-54.18-21.55-81.44-6.52,9.36-12.09,20.07-17.39,30.28-8.37,16.1-16.69,32.99-23.18,49.94-.53,1.38.26,3.19-2.2,2.66,2.28-10.33,6.18-20.39,9.8-30.3-4.42-.95-7.07,7.01-9.37,8.01-1.09.48-1.68-.22-1.31-1.31,5.79-14.2,11.36-28.52,20.47-41.02-3.38-.24-6.53,3.86-9.78,2.69,17.83-16.68,33.46-37.67,41.45-61.06,1.34,14.03-.25,28.33.41,42.38,1.25,26.68,6.82,56.05,15.19,81.51Z"/>
        <path class="cls-8" d="M582.5,552.16c2.37.51,1.74-1.19,2.22-2.64,4.82-14.62,6.03-29.96,8.47-45.04.21-1.33.05-2.75,1.78-3.11,1.86,13.06,5.54,26.73,7.03,39.77,1.06,9.29.7,18.69,1.9,27.96l-25.86,3.57c1.6-6.81,3.17-13.61,4.46-20.5Z"/>
        <path class="cls-8" d="M421.15,564.64c.24-11.88.42-24.84.89-36.99.04-1.08-.67-3.32.88-3.1,3.55,13.99,9.05,28.16,15.59,41.01,1.71,3.35,5.67,7.76,6.69,11.14.41,1.35-.06,1.46-1.28,1.29-7.03-.98-13.94-2.64-21-.86-.8-4.09-1.87-8.25-1.78-12.48Z"/>
        <path class="cls-6" d="M547.73,525.42c-.07-5.98,1.22-11.41.89-17.38.51-2.83,3.8-3.25,6.24-3.12,4.14,28.34,3.23,56.5-1.78,84.67l-2.66,1.78c-.82-1.68.88-4.1.88-4.9v-48.12c0-.29-.83-1.5-.93-2.64-.21-2.47,1.18-10.02-2.64-10.29Z"/>
        <path class="cls-6" d="M530.8,591.37c-8.38,1.79-10.51.92-18.24.85-4.69-.04-18.41.95-21.48-.81-.42-.24-5.87-6.24-6.64-7.18-1.75-2.15-2.61-4.31-1.34-7.13,3.41,6.81,11.06,6.69,17.39,9.35l30.3,4.91Z"/>
        <path class="cls-6" d="M547.73,530.77c0,.08.8-.09.87,1.32.08,1.59.33,9.86.02,10.27-.11.15-1.28-.09-1.78,0,.25-3.79-.92-8.32.89-11.59Z"/>
        <path class="cls-6" d="M416.7,579.79v.89c-.19.02-.98.87-2.16.93-1.24.06-9.42.23-9.44-.48,3.37-2.28,7.78-1.07,11.6-1.34Z"/>
        <path class="cls-6" d="M693.03,563.74c-2.58-10.68-8.13-25.97-12.07-36.51-.36-.97-2.22-3.05-.41-3.6,7.26,13.4,13.41,27.39,16.92,42.34l-4.44-2.24Z"/>
        <path class="cls-6" d="M624.39,521.86c2.24-23,1.42-46.05-1.91-68.94-1.51-10.39-4.14-20.59-6.1-30.87,10.96,12.59,23.89,22.99,37.86,32.1,1.59,1.04,8.16,4.1,8.48,4.45.12.13.33,1.81-.46,1.78-2.62-.07-8.69-4.39-12.01-3.14,20.22,18.41,36.09,41.45,46.33,66.85-9.05-.59-14.1-9.4-22.27-12.04-.83-1.12-4.06-2.05-3.56-4.45.89-.9,8.37,6.31,7.11,2.24-1.33-4.3-12.07-16.9-15.57-20.97l-34.32-36.53c2.45,22.11,2.91,44.71-1.67,66.56-.34,1.63.8,3.48-1.9,2.95Z"/>
        <path class="cls-6" d="M356.08,680.49c.44,2.87,2.9,2.13,3.51,5.85.63,3.86.73,5.87-1.72,8.41l-10.24,1.85-12.94-1.85c-8.71-4.07-14.97-8.72-17.83-18.71,1.67-3.49.67-7.64,1.29-11.63.38-2.44,1.52-5.82,2.67-8.02.69-1.32,6.59-6.61,2.27-6.19,2.71-5.14,2.49-9.86-4.46-9.8.52-1.26,1.13-3.89,1.39-5.3.17-.92,1.17-2.92-.49-2.72l-2.09,7.73-10.4,11.87c-1.52.2-6.66-.36-7.09.05-.58.56-2.06,13.92-1.83,15.99-1.76-.73-2.65-4.59-2.67-6.23-.07-10.67,1.35-28.25,8.55-37.35,2.99-3.78,5.15-6.02,10.21-5.05,11.28,2.18,27.17,23.39,26.64,34.76-.22,4.6-4.46,7.81-3.46,14.26.94,6.02,12.82,12.08,18.67,12.09ZM321.31,631.47v-3.56h-.87v3.56h.87Z"/>
        <path class="cls-6" d="M742.06,593.15c.23.13,1.05-.21,1.53.22,2.36,2.12,4.16,6.91.25,8.69-1.57-2.8-4.09-6.09-7.13-7.13-.06-.58.02-1.19,0-1.78h5.35Z"/>
        <path class="cls-6" d="M736.71,594.94c.17,1.64,5.73,8.37,7.15,12.01.9,2.32,1.74,5.12,2.24,7.56.98,4.76.86,9.75,2.2,14.29-.41,2.16.19,5.13-2.67,6.24l-.9-14.26c-3.4-.38-5.42,2.09-8.91,1.79.52-2.93-2.78-1.88-4.2-2.94-3.18-2.38-6.39-14.34-7.4-18.44-1.56-.22-.91,2.06-.79,3.01.31,2.49,1.64,7.09,2.58,9.46-6.49-4.72-6.77,4.38-8.91,8.91-.75-.14-5.4-.62-5.34.88,12.67.07,14.68,12.25,13.99,22.47-.1,1.53-1.92,2.85,1.16,2.49-1.14,6.71-2.92,10.87-7.13,16.04l-3.78,1.8c-2.05,2.1-8.41,5.12-11.36,5.79s-5.84-.27-8.03,1.32c-2.77-.55-5.53.18-6.74-3.52-2.16-6.59,2.83-11.07,7.63-14.31,1.53-1.03,4.73-1.44,7.17-3.98,8.29-8.64-.37-13.92.04-22.17.53-10.89,15.35-34.87,27.16-35.38,1.55-.07,3.39.43,4.86.93Z"/>
        <path class="cls-6" d="M593.2,646.62c-1.75-3.12-11.57-1.43-11.55-5.73,0-.94,1.17-2.52.79-3.07-.42-.6-3.15-.39-3.55-3.26-.16-1.17,5.59-3.56,1.25-10.04-.79-1.18-2.25-.66-2.09-1.96,6.81,2.43,3.62-.87,4.46-1.79.29-.32,4.13,1.41,5.34.89-.65-2.59-1.69-8.03-1.55-10.43.08-1.42,1.54-2.25,1.57-3.38.03-1.38-3.85-4.21-.46-4.02,2.68.15,9.97,1.77,11.09,4.28.65,1.46-.05,1.58,1.49,4.14,1.37,2.27-.41,2.87,4.8,2.3.7,2.35-1.19,1.41-1.74,2.44-.32.6-1.08,3.61-.93,3.79,1.42,1.76,1.9-1.78,2.33-1.84,1.65-.24,3.15.98,4.28.97.26,0,1.95-3.66,4.08-2.68-1.19,1.8.02,4.53-.23,5.67-.29,1.35-2.05,1.95-2.43,2.8-.81,1.78,2.21.72,1.69,2.55-1.47,5.16-8,6.61-3.47,14.81-3.36.28-6.42,1.51-9.73,2.15-1.43.28-2.17-1.39-1.86,1.42-1.17.05-2.39.05-3.57,0ZM596.63,617.08c1.4-2.2-.6-8.52-4.33-6.59-5.31,2.75,2.05,10.17,4.33,6.59ZM597.64,635.04c-1.6-1.62-3.92,5.01-3.55,5.34h4.45c-.12-.92-.71-5.15-.9-5.34Z"/>
        <path class="cls-6" d="M666.29,610.09c-10.75-.85-21.23-4.27-32.09-3.56,0-2.06-.9-7.68-1.45-9.72-.4-1.47-3.71-3.71-2.12-5.43,1.27-1.36,33.35,1.8,35.65,4.02,3.19,3.08.63,10.78.01,14.69Z"/>
        <path class="cls-2" d="M356.08,680.49c-5.85,0-17.74-6.07-18.67-12.09-1.01-6.45,3.24-9.66,3.46-14.26.53-11.37-15.36-32.58-26.64-34.76-5.06-.98-7.23,1.27-10.21,5.05-7.19,9.1-8.62,26.68-8.55,37.35-2.3-11.53-.39-26.57,5.5-36.84.38-.67,5.15-5.93.43-4.02-.47.19-7.01,6.64-4.9,1.34,2.15-5.41,12.9-6.67,17.92-5.72,12.64,2.39,30.51,27.4,27.9,39.95-.62,2.95-2.94,6.08-3.12,9.43-.45,8.38,12.23,9.53,16.89,14.57Z"/>
        <path class="cls-2" d="M743.84,602.06c4.07,7.26,5.98,18.73,4.46,26.74-1.34-4.54-1.22-9.53-2.2-14.29-.5-2.44-1.34-5.24-2.24-7.56-1.42-3.64-6.98-10.37-7.15-12.01,3.05,1.04,5.56,4.33,7.13,7.13Z"/>
        <path class="cls-2" d="M742.06,593.15h-5.35c.03.59-.06,1.2,0,1.78-1.47-.5-3.31-.99-4.86-.93-11.8.51-26.62,24.49-27.16,35.38-.4,8.25,8.25,13.53-.04,22.17-2.44,2.54-5.63,2.94-7.17,3.98,2.45-4.15,7.77-5.28,8.75-10.48.85-4.48-2.74-8.07-3.32-12.32-1.5-11.09,10.05-29.78,18.72-36.39,6.22-4.74,13.22-7.25,20.42-3.2Z"/>
        <path class="cls-2" d="M636.87,658.22c-14.31,12.86-35.09,10.43-52.59,6.22-.24-1.49,2.17-.97,3.14-.92,9.62.58,18.29,2.85,28.4,1.72,7.52-.84,13.86-5.2,21.04-7.03Z"/>
        <path class="cls-2" d="M452.35,670.69c0,1.34-2.69,1.67-3.77,2.01-14.29,4.52-31.11,5.26-44.37-2.46.07-1.89,11.95,2.42,13.35,2.71,12.65,2.59,22.37-.85,34.79-2.25Z"/>
        <path class="cls-6" d="M553.97,615.43c2.1-1.61,4-4.89,7.13-4.45.9.92-1.92,8.61,1.79,8.02-.94.71-8.1,7.17-8.91,6.23v-9.8Z"/>
        <path class="cls-2" d="M717.1,622.56c11.49,2.18,11.28,17.14,9.81,25.84-3.08.36-1.26-.96-1.16-2.49.69-10.22-1.32-22.4-13.99-22.47-.06-1.5,4.59-1.03,5.34-.88Z"/>
        <path class="cls-2" d="M323.1,650.19c4.32-.42-1.59,4.88-2.27,6.19-1.15,2.2-2.3,5.58-2.67,8.02-.62,3.99.38,8.14-1.29,11.63-2.03-7.09-1.05-13.95,2.2-20.53,1.12-2.26,3.4-4.1,4.04-5.32Z"/>
        <path class="cls-2" d="M357.86,694.75c-7.19,7.43-15.57,3.55-23.18,0l12.94,1.85,10.24-1.85Z"/>
        <path class="cls-2" d="M522.77,725.06c.23,1.58-2,.87-2.9.67-4.08-.89-8.52-3.14-12.72-3.38-3.45-.19-6.57,1.32-9.77.93-1.22-.15-2.75-.66-1.35-1.8,9.16-2.1,18.21.25,26.74,3.57Z"/>
        <path class="cls-2" d="M719.77,664.45c-5.98,7.35-13.77,10.8-23.18,8.91,2.2-1.6,5.2-.69,8.03-1.32s9.31-3.69,11.36-5.79l3.78-1.8Z"/>
        <path class="cls-2" d="M726.01,613.65c-.94-2.37-2.27-6.97-2.58-9.46-.12-.96-.77-3.24.79-3.01,1.02,4.1,4.22,16.06,7.4,18.44,1.41,1.06,4.71.01,4.2,2.94-4.63-.4-8.22-4.93-9.81-8.91Z"/>
        <path class="cls-2" d="M318.64,640.39c-1.62,3.96-7.05,10.97-11.59,11.59l10.4-11.87,2.09-7.73c1.66-.21.66,1.79.49,2.72-.26,1.41-.87,4.04-1.39,5.3Z"/>
        <path class="cls-6" d="M513.86,682.28c-.26,2.26.51,5.33-.14,7.43-.88,2.82-5.03,1.52-4.19-1.45l4.33-5.98Z"/>
        <path class="cls-2" d="M583.39,662.67c.6.31-.52,1.51-1.77.87-.6-.31.52-1.51,1.77-.87Z"/>
        <path class="cls-5" d="M553.97,615.43c-1.6,1.23-3.25,2.39-4.91,3.55-.33-.9.56-2.62,1.01-3.44,9.98-18.39,24.12-24.04,43.32-30.66,4.98-1.72,12.81-1.82,15.41-5.98.67-.41-.19,1.73,1.74,1.89,4.28.36,12.23-1.87,16.94-1.92,6.24-.07,12.39,1.64,18.76.93,5.03-.56,9.26-3.77,14.24-4.48,1.73,1.94-3.39,3.69-4.48,4.4-.71.46-1.83-.5-1.3,1.85,10.97,1.42,21.81,4.28,32.98,3.57,1.77,1.54-9.18,6.61-9.86,7.74-1.47,2.44-3.01,13.48-4.86,18.09-2.2,5.49-5.91,12.13-10.23,16.06,1.46-5.59,2.64-11.13,3.56-16.93.62-3.91,3.18-11.61-.01-14.69-2.29-2.21-34.38-5.38-35.65-4.02-1.6,1.72,1.71,3.95,2.12,5.43.56,2.03,1.45,7.66,1.45,9.72,0,5.09-2.47,10.78-2.82,15.89-2.11,1.55-5.34.51-7.32,1.19-1.09.37-1.1,1.82-1.74,2.29-.75.56-2.22.1-2.38.24-1.81,1.63,4.98,3.8,6.24,3.57-4.59,11.2-17.98,16.46-29.42,16.92-.31-2.81.43-1.14,1.86-1.42,3.31-.65,6.37-1.88,9.73-2.15-4.53-8.21,2-9.65,3.47-14.81.52-1.82-2.49-.76-1.69-2.55.39-.85,2.14-1.45,2.43-2.8.25-1.14-.96-3.87.23-5.67-2.13-.97-3.82,2.68-4.08,2.68-1.13.02-2.63-1.2-4.28-.97-.43.06-.91,3.6-2.33,1.84-.15-.19.61-3.19.93-3.79.55-1.02,2.44-.08,1.74-2.44-5.21.57-3.43-.03-4.8-2.3-1.54-2.56-.84-2.68-1.49-4.14-1.12-2.5-8.41-4.12-11.09-4.28-3.39-.19.5,2.64.46,4.02-.03,1.13-1.49,1.96-1.57,3.38-.13,2.4.9,7.84,1.55,10.43-1.22.53-5.06-1.2-5.34-.89-.84.92,2.36,4.22-4.46,1.79-.16,1.3,1.3.79,2.09,1.96,4.34,6.48-1.41,8.87-1.25,10.04.4,2.87,3.13,2.66,3.55,3.26.38.55-.78,2.13-.79,3.07-.02,4.3,9.8,2.61,11.55,5.73-14.64-.6-27.59-8.3-31.19-23.17,1.72,1.18,10.84.72,11.56-.03.66-.69-.1-5.71-1.96-6.51-4-1.73-5.96.03-8.71,2.08-3.71.6-.89-7.1-1.79-8.02-3.12-.44-5.03,2.84-7.13,4.45ZM614.9,600.85c0-1.83-1.48-3.31-3.31-3.31s-3.31,1.48-3.31,3.31,1.48,3.31,3.31,3.31,3.31-1.48,3.31-3.31Z"/>
        <path class="cls-2" d="M689.02,584.24c.58.3.58.59,0,.89v-.89Z"/>
        <circle class="cls-6" cx="611.59" cy="600.85" r="3.31"/>
        <rect class="cls-2" x="320.43" y="627.91" width=".87" height="3.56"/>
        <path class="cls-8" d="M596.63,617.08c-2.28,3.58-9.64-3.84-4.33-6.59,3.73-1.93,5.73,4.39,4.33,6.59Z"/>
        <path class="cls-8" d="M597.64,635.04c.19.19.78,4.43.9,5.34h-4.45c-.37-.33,1.95-6.96,3.55-5.34Z"/>
        <path class="cls-6" d="M432.74,285.7c1.52,1.35-8.16,6.45-9.11,7.16-27.11,20.26-53.08,42.18-72.74,70.07-.82,1.16-5.36,7.54-4.6,8.31,3.09-.4,4.42-4.27,8.01-3.56.48.49-.52,7.36.14,9.25.42,1.2,2.11,1.2,2.37,1.61,1.67,2.67-5.58,12.93-7.11,16.16-1.52,3.2-8.68,22.17-9.71,22.86-.38.26-1.88-.78-2.91-.6-2.95.5-3.83.32-6.31.62-2.14.25-5.49,3.55-7.24,3.57-2.06.03-2.6-3.07-4.87-2.67-.73,1.07-1.56,6.03-1.8,6.24-2.16,1.83-6.68-5.08-5.17-7.34,10.74-28.58,24.01-55.8,43.94-79.12,14.2-16.63,28.93-26.04,47.06-37.44,6.18-3.88,11.82-8.28,19.19-11.47,1.61-.7,10.04-4.39,10.86-3.65Z"/>
        <path class="cls-6" d="M650.02,312.68c.25.11.35,1.19.89,1.49,18.5,10.21,37.7,32.67,49.27,50.37,24.66,37.73,37.32,83.96,40.09,128.79l-10.94-42.96c-5.92-20.3-14.05-38.74-23.73-57.39-.8-1.54-.79-5.35-2.74-3.89-.18.13.63,1.7-1.32,1.86-2.6.21-4.19-1.52-6.32-1.84-3.11-.47-9.32,1.57-11.16-.66s-4.66-9.54-6.69-12.69c-2.47-3.83-10.09-12.65-11.29-15.45-2.39-5.57.69-16.89-1.27-23.68-2.12-7.33-14.66-16.26-19-22.89-.89-2.11,3.35-1.45,4.23-1.07ZM702.39,387.29v.89c.58-.3.58-.59,0-.89Z"/>
        <path class="cls-6" d="M582.5,552.16c3.47-18.54,5.27-37.29,6.24-56.15,4.65-.48,8.96.54,13.37,1.78.46-2.39-.53-1.54-1.79-2.17-1.26-.63-3.8-1.74-5.1-2.07-2.07-.54-5.6.62-6.35-1.67-1.25-3.81.14-18.46-.13-23.93-.43-8.71-1.39-17.65-3.39-26.03-.32-1.33-.71-2.39,1.15-2.04,2.24,1.07,10.61,29.99,11.79,34.56,8.12,31.23,12.44,63.5,10.83,95.88-.17.81-.69,1.02-1.39,1.28-8.39,3.13-21.47,2.75-30.16,7.29-2.89.43.19-5.09.46-6.23l25.86-3.57c-1.19-9.27-.84-18.67-1.9-27.96-1.49-13.04-5.17-26.7-7.03-39.77-1.73.36-1.56,1.79-1.78,3.11-2.44,15.08-3.66,30.43-8.47,45.04-.48,1.45.15,3.15-2.22,2.64Z"/>
        <path class="cls-6" d="M512.08,452.35c-3.11-.37-8.28-1.75-11.17-1.64-6.6.26-16.05,3.03-23.32,3.13-2.55.03-5.01-2.14-8.25-.61-1.81-8.33-2.68-16.9.86-24.93,11.68,8.24,26.49,10.8,40.47,7.95.32.05,1.41,3,1.41,3.19v12.92Z"/>
        <path class="cls-6" d="M421.15,564.64l-2.71-22.69c1.37-10.02-1.71-24.46.04-33.9.68-3.65,7.75-3.2,8.69,1.08,5.27,24.02,8.8,42.12,18.79,65.03,1.12,2.58,3.94,6.15,4.6,7.88.69,1.79-1.11,1.35-2.2,1.31-7.65-.26-17.26-4.33-25.43-3.55-.12-.85.16-1.89,0-2.67,7.05-1.78,13.97-.12,21,.86,1.22.17,1.68.06,1.28-1.29-1.02-3.38-4.98-7.79-6.69-11.14-6.54-12.84-12.05-27.02-15.59-41.01-1.55-.21-.84,2.02-.88,3.1-.47,12.16-.65,25.11-.89,36.99ZM421.6,521.86v.89c.58-.3.58-.59,0-.89Z"/>
        <path class="cls-6" d="M671.64,390.85c-4.18-1.18-4.93,1.8-7.19,3.07-1.51.84-6.38,3.03-7.07,3.65-1.34,1.21-.15,3.62-2.23,3.09-1.5-1.89-6.91-9.16-6.55-11.02,5.24-5.12,9.35-10.06,12.78-16.6,2.12,1.9,11.84,16.34,10.26,17.8Z"/>
        <path class="cls-6" d="M363.2,401.55c.27.28,1.8,5.26,3.2,7.06,3.43,4.43,7.43,3.31,6.23,9.91-.62,3.39-2.22,10.36-6.09,7.95-1.92-1.2-7.4-3.27-9.98-3.42-1.55-.09-3.61,2.17-4.05-1.46-.03-.26,1.47-.43,1.73-1.1,2.17-5.55,4.12-12.6,6.99-17.8.43-.78.7-2.45,1.98-1.14Z"/>
        <path class="cls-6" d="M530.69,443.34c-.26.3-5.51,1.8-7.32,2.92-2.48,1.54-3.58,4.8-6.83,4.3,1.32-4.6-2.06-13.48-.75-17.23.73-2.08,11.5-4.53,11.46-9.49,1.19-.26,1.01.93,1.3,1.79.96,2.8,3.58,16.08,2.15,17.72Z"/>
        <path class="cls-6" d="M413.12,451.46c-2.91,1.01-2.39-1.64-3.11-1.79-2.39-.5-.36,1.84-2.21,1.79-1.44-4.31,1.53-30.53,3.57-32.08,1.12-.85,6.11,5.51,6.23,6.69.55,5.45-4.97,18.81-4.47,25.39Z"/>
        <path class="cls-6" d="M463.05,427.4l.89,49.01c-.09.12-2.3-.88-2.67-1.56-1.35-2.45-2.51-13.33-2.71-16.68-.35-5.8-.78-25.19,1.94-29.33.7-1.07,1.1-1.75,2.55-1.45Z"/>
        <path class="cls-6" d="M307.04,437.2c.15.13.17,1.57.87,2.26.77.76,2.33,1.15,2.53,1.48,1.62,2.65-3.62,15.71-3.68,19.58-1.45.86-.78,5.94-2.81,5.19-.17-.06-2.88-1.79-2.98-1.94-1.46-2.44,4.36-21.78,4.3-26.09-.14-.81,1.67-.55,1.77-.47Z"/>
        <path class="cls-6" d="M360.53,390.86c.15,1.55.01,2.97-.42,4.48-2.38,8.39-9,18.1-11.1,27.05-.22.91-2.64.65-2.74.56-1.75-1.72,5.53-18.99,6.97-21.99.44-.91,5.78-11.88,7.28-10.09Z"/>
        <path class="cls-6" d="M677.92,393.49c-.2-.12-2.64-3.34-2.91-3.75-2.61-3.99-4.62-9.9-7.11-14.3-1.82-3.23-5.32-5.65-5.17-9.53,1.57-.32,2.2.81,3.13,1.77,2.5,2.57,15.26,22.04,14.62,24.39-.25.93-1.69,1.95-2.56,1.43Z"/>
        <path class="cls-6" d="M377.63,417.74c.18-.15,4.56-1.82,4.29.27-.53,4.14-3.99,15.32-6.05,18.92-1.87,3.28-3.51,2.45-3.82-1.07-.16-1.75,4.85-17.52,5.58-18.12Z"/>
        <path class="cls-6" d="M425.61,498.68l-6.24.9,1.79-25.84c1.34-.14,1.55,2.27,1.69,3.19,1.11,7.07.94,14.69,2.76,21.75Z"/>
        <path class="cls-6" d="M548.62,496.91v-24.06l2.24,7.12c.16,5.43,6.12,16.2-2.24,16.94Z"/>
        <path class="cls-2" d="M702.39,387.29c.58.3.58.59,0,.89v-.89Z"/>
        <path class="cls-8" d="M421.6,521.86c.58.3.58.59,0,.89v-.89Z"/>
        <g>
          <path class="cls-5" d="M423.82,589.58l1.07-1.51c1.15,2.25,15.21,4.14,18.92,5.15,12.09,3.29,25.19,9,35.28,16.43l-1.77,1.76c2.71,3.16,7.34,5.61,7.12,10.25-.17.22-2.1-1.4-2.67-1.78-1.36-.92-7.65-5.72-8.91-4.45.09,3.1,1.14,5.7.89,8.91-.12,1.51-2.35,9.57-3.56,10.32-1.29.8-6.7-2.24-8.02.83-1.62,3.75,4.86,1.74,4.47,4.46-.24,1.67-4.83,5.91-6.34,7.04-19.01,14.19-50.58,5.18-56.97-18.19,16.18.88,10.32-13.24-2.67-7.13.13-1.53-.76-3.05-.9-4.46-.55-5.62.86-10.6,1.78-16.04-5.16.76-33.29,4.51-34.64,8.61-1.38,4.19,1.51,10.8,2.55,14.56.19.69-.1,1.85.21,2.87.95,3.12,3.84,8.15,4.24,10.96.25,1.74-.33,1.41-1.76,1.31-2.5-4.43-5.96-7.89-8.5-12.45-3.42-6.13-5.05-12.06-7.16-18.69l-11.99-6.28v-4.01c0,.2.85,1.72,1.14,1.99,1.35,1.26,9.55.55,11.72.17,6.42-1.13,12.44-5.65,19.23-5.28,1.99-1.69-8.03-5.27-8.02-7.12,6.14-.21,12.28,3.95,18.41,4.11,4.61.12,11.78-2,16.81-2.33,6.61-.43,13.42.3,20.04-.01"/>
          <path class="cls-1" d="M456.79,617.21c6.26-10.76-6.12-7.64-5.3-4.07.16.7,4.29,4.76,5.3,4.07Z"/>
          <path class="cls-6" d="M440.76,616.32c-.18-.41.54-3.85-1.32-2.67-1.24.78-.96,2.74-1.63,3.33-.44.39-1.78.04-2.14.48-.73.91-2.38,4.26-2.05,5.42.18.63,1.73.48,1.77,1.1.04.64-.8,1.7-.63,2.46.24,1.1,2.19,3.52,1.54,4.13-1.7,1.58-3.35-3.1-5.34-1.78.99,7.3-2.13,3.05-2.67,3.57-1.81,1.74,2.76,1.81,1.77,2.66-.91.78-3.93.91-4.75,2.89-2.64,6.41.25,5.16,2.43,6.83.19.15,2.06,2.15,2.95,2.98.61.57.29,2.35,1.08,2.96.41.32,8.95,1.35,10.27,1.32,7.8-.21,14.17-6.02,15.68-13.4,4.94,2.3-1.42-3.22-1.75-4.23-.4-1.26.03-3.14-.43-4.78-.4-1.41-3.87-3.54-3.42-6.8l-10.47-5.57c-.1-.24-.72-.52-.89-.89Z"/>
        </g>
        <path class="cls-8" d="M345.38,562.85c2.46.53,1.67-1.28,2.2-2.66,6.49-16.95,14.82-33.84,23.18-49.94,5.31-10.21,10.87-20.92,17.39-30.28,3.03,27.27,8.17,57.22,21.55,81.44.66,1.2.54,2.54,2.53,2.33,1.61,4.9,5.23,11.32,6.22,15.63.15.66-1.18.42-1.77.41-3.82.27-8.23-.95-11.6,1.34.02.71,8.2.54,9.44.48,1.18-.06,1.97-.91,2.16-.93.7-.07,2.12-.2,2.56.11l4.56,8.79c-6.62.31-13.44-.42-20.04.01-5.03.33-12.2,2.45-16.81,2.33-6.13-.16-12.27-4.32-18.41-4.11-.02,1.85,10,5.42,8.02,7.12-6.79-.36-12.81,4.15-19.23,5.28-2.16.38-10.37,1.09-11.72-.17-.28-.26-1.14-1.78-1.14-1.99v-12.92l-2.67,4.45c.42-8.78,1.65-18.11,3.56-26.73Z"/>
        <path class="cls-6" d="M441.66,617.21l10.47,5.57c-.46,3.26,3.02,5.39,3.42,6.8.46,1.65.03,3.53.43,4.78.32,1.01,6.68,6.54,1.75,4.23-1.51,7.38-7.88,13.19-15.68,13.4-1.32.04-9.86-1-10.27-1.32-.8-.61-.47-2.38-1.08-2.96-.89-.83-2.76-2.83-2.95-2.98-2.18-1.66-5.07-.41-2.43-6.83.82-1.99,3.84-2.11,4.75-2.89.99-.85-3.58-.92-1.77-2.66.54-.52,3.66,3.73,2.67-3.57,1.99-1.32,3.64,3.36,5.34,1.78.65-.6-1.29-3.03-1.54-4.13-.17-.76.68-1.82.63-2.46-.04-.62-1.59-.47-1.77-1.1-.34-1.16,1.31-4.51,2.05-5.42.36-.44,1.7-.09,2.14-.48.67-.59.39-2.55,1.63-3.33,1.87-1.18,1.14,2.26,1.32,2.67-9.7,3.75.5,15.42,2.52,5.57.39-1.88-1-3.15-1.63-4.68Z"/>
        <path class="cls-6" d="M369.45,624.34c-1.05-3.76-3.93-10.37-2.55-14.56,1.35-4.09,29.48-7.85,34.64-8.61-.92,5.44-2.33,10.41-1.78,16.04-10.48.4-20.77,2.95-30.31,7.13Z"/>
        <path class="cls-6" d="M481.77,619.89l-.9,8.91-7.13-4.45c.26-3.21-.8-5.81-.89-8.91,1.26-1.27,7.55,3.54,8.91,4.45Z"/>
        <path class="cls-8" d="M440.76,616.32c.17.37.79.65.89.89.63,1.53,2.01,2.8,1.63,4.68-2.02,9.85-12.22-1.82-2.52-5.57Z"/>
        <path class="cls-8" d="M456.79,617.21c-1.02.7-5.14-3.37-5.3-4.07-.81-3.57,11.57-6.69,5.3,4.07Z"/>
        <path class="cls-2" d="M476.41,598.5c-.31.6-1.51-.52-.87-1.77.31-.6,1.51.52.87,1.77Z"/>
        <path class="cls-6" d="M458.59,561.07c-1.52-4.98-2.32-14.42-2.67-20.06-.09-1.46-.77-6.05.87-6.67.85,5.35,2.62,10.54,4.45,15.61,4.86,13.43,12.31,30.08,21.41,40.53-2.91,4.46-4.28,2.68-7.11-.47-4.57-5.1-15.01-22.55-16.96-28.94Z"/>
        <path d="M476.76,991.05l6.13.44-6.13.44c.02-.24.06-.65,0-.87Z"/>
        <rect class="cls-4" x="437.39" y="999.88" width="236.8" height="134.99"/>
      </g>
    </g>
  </g>
</svg>