<?xml version="1.0" encoding="UTF-8"?>
<svg id="_圖層_2" data-name="圖層 2" xmlns="http://www.w3.org/2000/svg" viewBox="0 0 204.78 253.55">
  <defs>
    <style>
      .cls-1 {
        fill: #fff;
      }

      .cls-2, .cls-3 {
        fill: #4858f9;
      }

      .cls-4 {
        fill: #030619;
      }

      .cls-3 {
        stroke: #030619;
        stroke-width: 3px;
      }

      .cls-3, .cls-5 {
        stroke-miterlimit: 10;
      }

      .cls-5 {
        fill: none;
        stroke: #fff;
        stroke-width: 3.54px;
      }
    </style>
  </defs>
  <g id="_圖層_2-2" data-name="圖層 2">
    <g>
      <g>
        <path class="cls-2" d="M32.21,250.4c-3.9,0-7.76-1.3-10.87-3.66-17.65-13.38-9.81-35.23-3.2-44.91l1.64-2.4,29.65,16.99.27,1.43c2.04,10.98.79,19.64-3.73,25.73-3.21,4.33-8.23,6.82-13.75,6.82h0Z"/>
        <path class="cls-1" d="M20.73,203.61l25.86,14.82c2.17,11.7.1,18.87-3.16,23.28-2.73,3.68-6.94,5.55-11.23,5.55-3.13,0-6.3-1-8.97-3.02-19.93-15.11-2.51-40.63-2.51-40.63M18.82,195.26l-3.28,4.8c-.21.3-5.06,7.48-7.16,16.81-2.98,13.21.95,24.71,11.06,32.38,3.65,2.77,8.19,4.3,12.77,4.3,6.53,0,12.47-2.95,16.28-8.09,5.06-6.82,6.5-16.3,4.29-28.17l-.53-2.86-2.53-1.45-25.86-14.82-5.05-2.89h0Z"/>
        <path class="cls-4" d="M20.73,203.61l25.86,14.82c2.17,11.7.1,18.87-3.16,23.28-2.73,3.68-6.94,5.55-11.23,5.55-3.13,0-6.3-1-8.97-3.02-19.93-15.11-2.51-40.63-2.51-40.63M19.82,199.63l-1.56,2.29c-.19.28-4.7,6.95-6.67,15.68-2.72,12.05.69,22.09,9.84,29.03,3.08,2.34,6.91,3.63,10.78,3.63,5.48,0,10.45-2.46,13.64-6.76,4.49-6.05,5.73-14.67,3.7-25.61l-.25-1.36-1.2-.69-25.86-14.82-2.41-1.38h0Z"/>
      </g>
      <g>
        <path class="cls-2" d="M54.47,228.18c-18.91,0-32.09-5.73-39.16-17.02C3.53,192.32.16,169.31,5.84,146.36c4.79-19.37,14.46-33.56,22.53-39.82-2.02-12.66-10.73-79.08,26.49-91.1,2.85-.92,5.59-1.39,8.14-1.39,5.25,0,9.81,1.93,13.54,5.72,5.5,5.61,8.58,14.87,10.21,24.99C92.32,23.69,103.22,3.15,124.55,3.15c1,0,2.03.05,3.06.14,9,.81,15.75,4.76,20.08,11.74,13.02,20.99-.73,63.72-4.92,75.47,4.75,1.96,14.21,6.55,22.96,14.88,10.92,10.39,22.61,28.66,17.44,57.19,12.91,5.84,19.1,11.08,18.41,15.6-.53,3.45-4.15,4.73-7.01,5.26-.83,10-4.21,36.72-16.68,36.72-1.98,0-4.02-.68-6.04-2.03-10.75-7.16-15.69-14.19-17.83-18.2-12.62,6-62,28.26-99.54,28.26Z"/>
        <path class="cls-1" d="M124.55,6.29c.9,0,1.83.04,2.77.13,43.26,3.91,11.42,85.91,11.42,85.91,0,0,52.57,16.82,40.85,72.09,0,0,32.74,14.12,12.02,16.22,0,0-2.18,36.35-13.73,36.35-1.31,0-2.74-.47-4.3-1.51-15.32-10.21-18.02-19.83-18.02-19.83,0,0-58.89,29.36-101.09,29.36-15.86,0-29.35-4.14-36.49-15.55-26.13-41.75-2.7-90.72,13.82-101.53,0,0-14.12-77.2,24.03-89.52,2.61-.84,5-1.24,7.18-1.24,19.93,0,22.59,32.83,22.18,54.37-1.12,10.69-1.12,18.36-1.12,18.36,0,0,.93-7.83,1.12-18.36,2.59-24.62,11.13-65.28,39.36-65.28M124.55,0c-10.39,0-24.9,4.7-35.03,27.11-.82,1.82-1.59,3.7-2.3,5.61-2.07-6.47-4.88-11.53-8.43-15.14-4.28-4.36-9.74-6.67-15.78-6.67-2.88,0-5.95.52-9.11,1.54C15.84,24.73,22.56,88.61,24.99,105.23c-9.41,8.1-18.07,23.66-22.2,40.37-5.89,23.78-2.38,47.65,9.86,67.22,7.68,12.28,21.75,18.5,41.82,18.5,35.93,0,82.29-19.94,98.27-27.34,2.86,4.44,8.07,10.56,17.35,16.75,2.55,1.7,5.17,2.56,7.79,2.56,12.28,0,16.09-17.4,17.34-23.12,1.16-5.31,1.85-10.57,2.24-14.23,3.19-.99,6.56-3.01,7.22-7.3.99-6.43-5.65-11.12-12.28-14.87-2.02-1.14-4.03-2.17-5.74-3,4.39-28.56-7.58-47.03-18.76-57.68-7.64-7.27-15.83-11.82-21.21-14.31,1.86-5.5,4.59-14.38,6.68-24.4,4.78-22.93,3.77-40.1-3-51.01-4.81-7.75-12.58-12.32-22.47-13.21-1.12-.1-2.25-.15-3.34-.15h0Z"/>
        <path class="cls-4" d="M124.55,6.29c.9,0,1.83.04,2.77.13,43.26,3.91,11.42,85.91,11.42,85.91,0,0,52.57,16.82,40.85,72.09,0,0,32.74,14.12,12.02,16.22,0,0-2.18,36.35-13.73,36.35-1.31,0-2.74-.47-4.3-1.51-15.32-10.21-18.02-19.83-18.02-19.83,0,0-58.89,29.36-101.09,29.36-15.86,0-29.35-4.14-36.49-15.55-26.13-41.75-2.7-90.72,13.82-101.53,0,0-14.12-77.2,24.03-89.52,2.61-.84,5-1.24,7.18-1.24,19.93,0,22.59,32.83,22.18,54.37-1.12,10.69-1.12,18.36-1.12,18.36,0,0,.93-7.83,1.12-18.36,2.59-24.62,11.13-65.28,39.36-65.28M124.55,3.29c-21.47,0-32.34,20.92-37.83,42.18-1.59-10.36-4.67-19.88-10.28-25.59-3.7-3.77-8.22-5.68-13.43-5.68-2.54,0-5.26.46-8.1,1.38-9.54,3.08-16.83,10.08-21.66,20.81-3.73,8.27-5.99,18.78-6.73,31.25-1.04,17.42,1.16,33.56,2.02,38.97-8.06,6.21-17.75,20.4-22.55,39.79-5.67,22.91-2.31,45.88,9.46,64.68,7.04,11.25,20.17,16.96,39.03,16.96,37.63,0,87.19-22.41,99.6-28.31,2.09,3.97,7.01,11.04,17.85,18.27,2,1.33,4.01,2.01,5.96,2.01,6.48,0,11.1-6.72,14.12-20.54,1.41-6.43,2.1-12.79,2.41-16.16,2.84-.51,6.49-1.75,7.02-5.16.55-3.54-2.64-6.98-10.65-11.5-2.93-1.65-5.86-3.07-7.78-3.97,5.23-28.54-6.46-46.81-17.37-57.19-8.82-8.39-18.35-12.98-23.04-14.9,4.12-11.55,18.01-54.46,4.98-75.47-4.3-6.93-11.02-10.86-19.97-11.67-1.02-.09-2.05-.14-3.04-.14h0Z"/>
      </g>
      <path class="cls-3" d="M63.04,96.84s12.32-7.21,29.44-7.21"/>
      <path class="cls-5" d="M27.84,171.33l27.39-5.41s6.31,22.23-7.21,23.43c-13.52,1.2-13.94-19.26-13.94-19.26"/>
      <path class="cls-5" d="M102.38,154.25l27.39-5.41s6.31,22.23-7.21,23.43c-13.52,1.2-13.94-19.26-13.94-19.26"/>
      <ellipse class="cls-1" cx="79.99" cy="190.75" rx="9.99" ry="5.38" transform="translate(-119.19 134.97) rotate(-51.61)"/>
      <ellipse class="cls-1" cx="90.62" cy="189.52" rx="5.38" ry="9.99" transform="translate(-104.94 112.81) rotate(-43.03)"/>
      <path class="cls-1" d="M122.67,155.74l.89,2.75h2.89c.77,0,1.09.99.47,1.44l-2.34,1.7.89,2.75c.24.73-.6,1.34-1.22.89l-2.34-1.7-2.34,1.7c-.62.45-1.46-.16-1.22-.89l.89-2.75-2.34-1.7c-.62-.45-.3-1.44.47-1.44h2.89s.89-2.75.89-2.75c.24-.73,1.27-.73,1.51,0Z"/>
      <path class="cls-1" d="M49.58,173.1l.89,2.75h2.89c.77,0,1.09.99.47,1.44l-2.34,1.7.89,2.75c.24.73-.6,1.34-1.22.89l-2.34-1.7-2.34,1.7c-.62.45-1.46-.16-1.22-.89l.89-2.75-2.34-1.7c-.62-.45-.3-1.44.47-1.44h2.89s.89-2.75.89-2.75c.24-.73,1.27-.73,1.51,0Z"/>
    </g>
  </g>
</svg>