<?xml version="1.0" encoding="UTF-8"?>
<svg id="_圖層_2" data-name="圖層 2" xmlns="http://www.w3.org/2000/svg" viewBox="0 0 177.87 245.17">
  <defs>
    <style>
      .cls-1 {
        fill: #231815;
      }

      .cls-2 {
        fill: #803afd;
      }

      .cls-3 {
        fill: #fff;
      }

      .cls-4 {
        fill: #3e0e7b;
      }

      .cls-5 {
        fill: #ddd;
      }

      .cls-6 {
        fill: #4858f9;
      }
    </style>
  </defs>
  <g id="_圖層_2-2" data-name="圖層 2">
    <g>
      <g>
        <path class="cls-3" d="M124.9,3.82c1.52,0,3.15.29,4.9.9,30.39,10.67,21.19,77.05,15.99,88.24,0,0,63.58,53.18,0,122.36,0,0,9.6,21.99-6.4,22.39-.41.01-.81.02-1.2.02-14.91,0-17.19-7.21-17.19-7.21,0,0-6.11,10.83-16.89,10.83-3.28,0-6.99-1-11.1-3.62,0,0-6.37,2.8-13.78,2.8-6.85,0-14.59-2.39-19.01-11.62,0,0-8.13,5.73-15.23,5.73-5.2,0-9.86-3.07-10.36-13.73,0,0-68.78-63.18-.8-127.95,0,0-12.01-88.24,17.08-88.24.93,0,1.9.09,2.91.28,32.79,6,19.19,77.57,19.19,77.57,0,0,8.09-3.27,17.58-3.27,4.19,0,8.65.64,12.81,2.47,0,0-3.55-77.95,21.49-77.95M124.9,0c-4.37,0-8.27,1.76-11.6,5.24-6.97,7.29-11.38,22.53-13.11,45.3-.8,10.53-.84,20.16-.75,25.91-2.76-.65-5.72-.97-8.85-.97-4.9,0-9.43.8-12.83,1.64,1.95-13.88,5.1-47.48-6.91-64.99-4.11-5.99-9.6-9.65-16.34-10.88-1.23-.22-2.44-.34-3.6-.34-5.03,0-9.35,2.03-12.85,6.04-7.27,8.32-10.8,25.54-10.49,51.18.18,15.11,1.64,28.54,2.23,33.42C9.82,111.11-.2,132.5,0,155.17c.32,35.27,25.18,61.83,30.91,67.48,1.21,13.71,9.26,15.81,14.08,15.81,5.17,0,10.48-2.36,13.88-4.24,4.53,6.64,11.49,10.13,20.35,10.13,5.68,0,10.77-1.47,13.42-2.39,3.83,2.13,7.68,3.21,11.46,3.21,7.99,0,13.74-4.72,17.02-8.43,2.97,2.43,8.15,4.81,17.06,4.81.42,0,.86,0,1.3-.02,6.23-.16,9.35-3.04,10.88-5.44,3.93-6.17,1.41-15.54-.16-19.96,19.76-22.15,29.02-45.05,27.5-68.1-1.94-29.63-21.04-50.1-27.43-56.17,4.04-12.54,8.85-48.78-.92-71.93-4.07-9.66-10.23-15.99-18.3-18.83-2.11-.74-4.18-1.12-6.16-1.12h0Z"/>
        <path class="cls-1" d="M124.9,3.82c1.52,0,3.15.29,4.9.9,30.39,10.67,21.19,77.05,15.99,88.24,0,0,63.58,53.18,0,122.36,0,0,9.6,21.99-6.4,22.39-.41.01-.81.02-1.2.02-14.91,0-17.19-7.21-17.19-7.21,0,0-6.11,10.83-16.89,10.83-3.28,0-6.99-1-11.1-3.62,0,0-6.37,2.8-13.78,2.8-6.85,0-14.59-2.39-19.01-11.62,0,0-8.13,5.73-15.23,5.73-5.2,0-9.86-3.07-10.36-13.73,0,0-68.78-63.18-.8-127.95,0,0-12.01-88.24,17.08-88.24.93,0,1.9.09,2.91.28,32.79,6,19.19,77.57,19.19,77.57,0,0,8.09-3.27,17.58-3.27,4.19,0,8.65.64,12.81,2.47,0,0-3.55-77.95,21.49-77.95M124.9,2.63c-3.63,0-6.89,1.49-9.7,4.43-14.1,14.75-13.38,62.71-13.06,72.92-3.45-1.25-7.33-1.88-11.55-1.88-6.91,0-13.03,1.67-16.05,2.65,1.57-9.44,7.04-48.33-5.86-67.15-3.7-5.39-8.62-8.68-14.65-9.78-1.07-.2-2.12-.29-3.13-.29-4.24,0-7.9,1.73-10.87,5.14-15.51,17.77-8.39,76.79-7.47,83.85C12.5,111.81,2.43,132.88,2.63,155.15c.18,19.82,8.65,36.89,15.73,47.71,6.8,10.41,13.49,17.06,15.1,18.6.72,11.87,6.65,14.38,11.53,14.38,5.86,0,12.22-3.59,14.77-5.19,3.96,7.26,10.66,11.08,19.46,11.08,6.35,0,11.88-1.96,13.67-2.66,3.78,2.31,7.55,3.47,11.21,3.47,8.77,0,14.54-6.56,16.83-9.75,1.8,2.38,6.37,6.13,17.25,6.13.4,0,.81,0,1.23-.02,4.07-.1,7.01-1.52,8.73-4.22,3.8-5.96.16-16.28-.96-19.12,20.01-21.98,29.4-44.64,27.91-67.36-1.16-17.66-8.85-31.99-15.09-40.89-5.58-7.96-10.92-13.03-12.77-14.68,3.88-9.89,9.56-48.34-.28-71.67-3.77-8.95-9.41-14.79-16.75-17.37-1.83-.64-3.61-.97-5.29-.97h0Z"/>
        <path class="cls-2" d="M33.83,92.97S21.03-1,53.82,5c32.79,6,19.19,77.57,19.19,77.57,0,0,16.79-6.8,30.39-.8,0,0-4-87.72,26.39-77.05,30.39,10.67,21.19,77.05,15.99,88.24,0,0,63.58,53.18,0,122.36,0,0,9.6,21.99-6.4,22.39s-18.39-7.2-18.39-7.2c0,0-10.4,18.42-27.99,7.21,0,0-23.59,10.38-32.79-8.81,0,0-24.39,17.19-25.59-8,0,0-68.78-63.18-.8-127.95Z"/>
      </g>
      <ellipse class="cls-4" cx="96.69" cy="160.02" rx="8.79" ry="4.73" transform="translate(-88.78 136.42) rotate(-51.61)"/>
      <ellipse class="cls-4" cx="106.04" cy="158.93" rx="4.73" ry="8.79" transform="translate(-79.93 115.1) rotate(-43.03)"/>
      <ellipse class="cls-4" cx="65.53" cy="133.77" rx="13.83" ry="19.31"/>
      <path class="cls-3" d="M44.45,140.46c-4.12-8.55-2.9-20.26,3.38-27.8,4.65-5.9,13.56-8.59,20.45-4.77,9.25,4.87,12.72,16.81,10.35,26.04,0,0-.43,0-.43,0-.17-8.57-3.53-18.35-11.65-22.37-8.82-4.22-17.39,3.17-20.21,11.34-2.08,5.53-2.53,11.66-1.46,17.47,0,0-.42.08-.42.08h0Z"/>
      <path class="cls-3" d="M156.12,137.79c-.41-10.49-5.67-27.12-17.58-26.55-8.92,1.43-13.46,11.59-15.75,20.11,0,0-.43,0-.43,0-.06-5.99,1.44-12.13,4.93-17.12,9.07-12.64,23.33-7.52,28.04,5.85,2.11,5.68,2.47,11.93,1.22,17.81l-.42-.08h0Z"/>
      <ellipse class="cls-4" cx="135.86" cy="133.77" rx="13.83" ry="19.31"/>
      <path class="cls-6" d="M66.14,120.75l1.44,4.44h4.67c1.24,0,1.76,1.59.76,2.32l-3.78,2.75,1.44,4.44c.38,1.18-.97,2.17-1.98,1.44l-3.78-2.75-3.78,2.75c-1.01.73-2.36-.25-1.98-1.44l1.44-4.44-3.78-2.75c-1.01-.73-.49-2.32.76-2.32h4.67s1.44-4.44,1.44-4.44c.38-1.18,2.06-1.18,2.44,0Z"/>
      <path class="cls-6" d="M137.08,120.75l1.44,4.44h4.67c1.24,0,1.76,1.59.76,2.32l-3.78,2.75,1.44,4.44c.38,1.18-.97,2.17-1.98,1.44l-3.78-2.75-3.78,2.75c-1.01.73-2.36-.25-1.98-1.44l1.44-4.44-3.78-2.75c-1.01-.73-.49-2.32.76-2.32h4.67s1.44-4.44,1.44-4.44c.38-1.18,2.06-1.18,2.44,0Z"/>
      <circle class="cls-5" cx="64.47" cy="144.32" r="2.3"/>
      <circle class="cls-5" cx="135.21" cy="144.32" r="2.3"/>
    </g>
  </g>
</svg>