<?xml version="1.0" encoding="UTF-8"?>
<svg id="_圖層_2" data-name="圖層 2" xmlns="http://www.w3.org/2000/svg" viewBox="0 0 166.17 163.48">
  <defs>
    <style>
      .cls-1 {
        fill: #231815;
      }

      .cls-2 {
        fill: #fff;
      }

      .cls-3 {
        fill: #d5ff03;
      }

      .cls-4 {
        fill: #4858f9;
      }

      .cls-5 {
        fill: #030619;
      }
    </style>
  </defs>
  <g id="_圖層_3" data-name="圖層 3">
    <g>
      <g>
        <polygon class="cls-4" points="56.43 96.03 13.29 64.68 66.61 64.68 83.09 13.97 99.56 64.68 152.89 64.68 109.75 96.03 126.22 146.74 83.09 115.39 39.95 146.74 56.43 96.03"/>
        <path class="cls-2" d="M83.09,27.94l13.34,41.06h43.17l-34.92,25.37,13.34,41.06-34.92-25.37-34.92,25.37,13.34-41.06-34.92-25.37h43.17l13.34-41.06M83.09,0l-8.21,25.28-11.4,35.09H0l21.5,15.62,29.85,21.69-11.4,35.09-8.21,25.28,21.5-15.62,29.85-21.69,29.85,21.69,21.5,15.62-8.21-25.28-11.4-35.09,29.85-21.69,21.5-15.62h-63.47l-11.4-35.09L83.09,0h0Z"/>
        <path class="cls-1" d="M83.09,27.94l13.34,41.06h43.17l-34.92,25.37,13.34,41.06-34.92-25.37-34.92,25.37,13.34-41.06-34.92-25.37h43.17l13.34-41.06M83.09,12.7l-4.48,13.79-12.28,37.8H12.08l11.73,8.52,32.16,23.36-12.28,37.8-4.48,13.79,11.73-8.52,32.16-23.36,32.16,23.36,11.73,8.52-4.48-13.79-12.28-37.8,32.16-23.36,11.73-8.52h-54.24l-12.28-37.8-4.48-13.79h0Z"/>
      </g>
      <g>
        <path class="cls-3" d="M83.22,161.63c-.93,0-1.71-.69-1.83-1.62-1.01-8.04-1.37-16.19-1.72-24.06-.41-9.25-.84-18.78-2.32-28.17-12.17,11.9-25.44,22.95-38.29,33.66-.34.29-.76.43-1.18.43-.46,0-.92-.17-1.28-.51-.68-.65-.76-1.71-.18-2.46,6.97-9.06,14.41-17.35,21.61-25.37,3.96-4.41,8.03-8.95,11.95-13.54-10.68-.2-21.75-1.15-32.5-2.08-5.67-.49-11.54-1-17.16-1.37-.95-.06-1.69-.83-1.72-1.78s.66-1.76,1.6-1.89c8.78-1.17,17.97-1.76,26.86-2.34,7.58-.49,15.38-.99,22.91-1.86-11.83-12.12-22.83-25.32-33.49-38.12-.59-.71-.57-1.75.05-2.43.36-.4.86-.6,1.37-.6.36,0,.72.11,1.04.33,9.53,6.6,18.22,14.63,26.61,22.4,4.04,3.74,8.19,7.58,12.39,11.21.2-8.09.96-16.22,1.7-24.13.85-9.1,1.74-18.51,1.74-27.73,0-.97.76-1.78,1.73-1.84.04,0,.08,0,.12,0,.92,0,1.71.69,1.83,1.62,1.01,8.04,1.37,16.18,1.72,24.06.41,9.25.84,18.78,2.32,28.17,12.16-11.89,25.42-22.93,38.27-33.64.35-.29.77-.43,1.19-.43.45,0,.89.16,1.24.48.68.62.81,1.64.28,2.4-6.6,9.54-14.63,18.22-22.4,26.62-3.74,4.04-7.58,8.19-11.21,12.39,7.78.21,15.77,1,23.53,1.77,8.57.85,17.43,1.72,25.74,1.78.98,0,1.79.79,1.83,1.77.04.98-.7,1.83-1.68,1.91,0,0-5.47.49-12.72,1.07l-3.18.26c-11.33.94-22.09,1.84-33.54,2.01,5.05,5.98,10.34,12.02,15.47,17.89,6.01,6.87,12.22,13.97,18.05,20.96.59.71.57,1.75-.06,2.43-.36.39-.86.6-1.36.6-.36,0-.73-.11-1.05-.33-7.68-5.31-14.53-11.87-21.15-18.2-5.67-5.42-11.51-11.01-17.83-15.76-.17,11.3-1.12,22.7-2.04,33.76-.51,6.09-1.03,12.38-1.42,18.57-.06.95-.83,1.7-1.78,1.73-.02,0-.04,0-.06,0ZM81.76,96.48c.24,0,.48.05.71.14.33.14.61.37.81.66.2-.29.48-.52.81-.65.23-.09.47-.14.7-.14.11,0,.22,0,.33.03-.06-.34-.03-.71.11-1.04.14-.33.37-.61.65-.81-.29-.2-.51-.48-.65-.81-.14-.33-.17-.7-.11-1.04-.1.02-.21.03-.32.03-.24,0-.48-.05-.71-.14-.33-.14-.61-.37-.81-.66-.2.29-.48.52-.81.65-.23.09-.47.14-.7.14-.11,0-.22,0-.33-.03.06.34.03.71-.11,1.04-.14.33-.37.61-.65.81.29.2.51.48.65.81.14.33.17.7.11,1.04.1-.02.21-.03.32-.03Z"/>
        <path class="cls-5" d="M83.22,29.6c2.32,18.6,1.16,37.2,4.65,55.8,12.79-12.79,26.74-24.41,40.69-36.04-10.46,15.11-24.41,27.9-36.04,41.85,17.44,0,36.04,3.49,53.2,3.6,0,0-5.47.49-12.7,1.07-13.77,1.14-26.55,2.3-40.5,2.3,11.62,13.95,24.41,27.9,36.04,41.85-15.11-10.46-26.74-25.57-41.85-36.04,0,18.6-2.32,37.2-3.49,55.8-2.32-18.6-1.16-37.2-4.65-55.8-12.79,12.79-26.74,24.41-40.69,36.04,11.62-15.11,24.41-27.9,36.04-41.85-17.44,0-36.04-2.32-53.47-3.49,17.44-2.32,36.04-2.32,53.47-4.65-12.79-12.79-24.41-26.74-36.04-40.69,15.11,10.46,27.9,24.41,41.85,36.04,0-18.6,3.49-37.2,3.49-55.8M81.77,90.99l-8.45-6.34,6.31,8.48-10.3,1.49,10.29,1.54-6.35,8.45,8.48-6.3,1.49,10.62,1.54-10.61,8.45,6.34-6.31-8.48,10.3-1.49-10.29-1.54,6.35-8.45-8.48,6.3-1.49-10.62-1.54,10.61M128.56,49.36h0M83.23,25.91c-.08,0-.15,0-.23,0-1.94.12-3.46,1.73-3.46,3.68,0,9.13-.88,18.49-1.73,27.55-.62,6.67-1.27,13.5-1.57,20.34-3.19-2.83-6.34-5.75-9.43-8.61-8.44-7.81-17.18-15.89-26.82-22.56-.64-.44-1.37-.66-2.1-.66-1.01,0-2,.41-2.72,1.2-1.25,1.36-1.29,3.43-.11,4.85,9.9,11.88,20.09,24.1,30.98,35.52-6.32.63-12.78,1.04-19.08,1.45-8.92.58-18.14,1.17-26.99,2.35-1.88.25-3.26,1.88-3.2,3.78.06,1.89,1.55,3.43,3.44,3.56,5.6.37,11.46.88,17.12,1.37,9.48.82,19.21,1.66,28.72,1.99-3.11,3.58-6.28,7.11-9.39,10.57-7.22,8.05-14.69,16.37-21.7,25.48-1.15,1.49-.99,3.61.37,4.91.71.68,1.63,1.03,2.56,1.03.84,0,1.67-.28,2.36-.86,11.97-9.98,24.3-20.25,35.79-31.24,1.06,8.15,1.43,16.39,1.79,24.42.35,7.91.72,16.09,1.73,24.21.23,1.85,1.81,3.23,3.66,3.23.04,0,.08,0,.12,0,1.9-.06,3.45-1.56,3.57-3.46.39-6.16.91-12.45,1.42-18.52.82-9.89,1.67-20.06,1.97-30.2,5.16,4.17,10.04,8.83,14.8,13.38,6.68,6.39,13.58,12.99,21.37,18.39.64.44,1.37.66,2.1.66,1.01,0,2-.41,2.72-1.2,1.25-1.36,1.29-3.43.11-4.85-5.84-7.01-12.06-14.12-18.08-20.99-4.29-4.9-8.68-9.92-12.95-14.92,10.08-.29,19.72-1.09,29.8-1.93l3.16-.26c7.16-.57,12.67-1.07,12.73-1.07,1.96-.18,3.44-1.86,3.36-3.83-.08-1.97-1.69-3.52-3.66-3.54-8.23-.06-17.05-.93-25.57-1.77-6.51-.64-13.18-1.3-19.77-1.63,2.84-3.19,5.76-6.35,8.63-9.45,7.79-8.42,15.84-17.12,22.5-26.73.45-.61.72-1.37.72-2.19,0-2.04-1.65-3.69-3.69-3.69h-.03c-.9,0-1.72.33-2.36.87-11.97,9.97-24.29,20.24-35.77,31.22-1.06-8.15-1.43-16.39-1.79-24.42-.35-7.91-.72-16.09-1.73-24.21-.23-1.86-1.81-3.23-3.66-3.23h0ZM83.09,94.44s.06-.03.1-.04c.03-.01.07-.03.1-.04.03.02.07.03.1.04.03.01.06.03.1.04.01.04.03.08.04.11.01.04.03.07.05.11-.02.03-.03.07-.05.11-.02.04-.03.08-.05.11-.03.01-.06.03-.1.04-.03.01-.07.03-.1.04-.03-.02-.07-.03-.1-.04-.03-.01-.06-.03-.1-.04-.01-.04-.03-.08-.04-.11-.01-.04-.03-.07-.05-.11.02-.03.03-.07.05-.11.02-.04.03-.08.05-.11h0Z"/>
      </g>
    </g>
  </g>
</svg>