<?xml version="1.0" encoding="UTF-8"?>
<svg id="_圖層_2" data-name="圖層 2" xmlns="http://www.w3.org/2000/svg" viewBox="0 0 188.19 246.95">
  <defs>
    <style>
      .cls-1 {
        fill: #231815;
      }

      .cls-2 {
        fill: #fff;
      }

      .cls-3 {
        fill: #d5ff03;
      }

      .cls-4 {
        fill: #4858f9;
      }

      .cls-5 {
        stroke: #231815;
        stroke-width: 9px;
      }

      .cls-5, .cls-6 {
        fill: none;
        stroke-miterlimit: 10;
      }

      .cls-6 {
        stroke: #fff;
        stroke-width: 3.6px;
      }
    </style>
  </defs>
  <g id="_圖層_2-2" data-name="圖層 2">
    <g>
      <g>
        <path class="cls-3" d="M83.43,38.37s75.04,88.38,68.97,100.53c-6.07,12.14-38.67-27.48-38.99-17.9-.32,9.59,85.97,120.8,67.75,121.44-18.22.64-84.69-102.59-86.93-97.79-2.24,4.79,20.45,45.7,4.47,40.91-15.98-4.79-89.25-95.78-89.25-95.78"/>
        <path class="cls-5" d="M83.43,38.37s75.04,88.38,68.97,100.53c-6.07,12.14-38.67-27.48-38.99-17.9-.32,9.59,85.97,120.8,67.75,121.44-18.22.64-84.69-102.59-86.93-97.79-2.24,4.79,20.45,45.7,4.47,40.91-15.98-4.79-89.25-95.78-89.25-95.78"/>
        <path class="cls-6" d="M83.43,38.37s75.04,88.38,68.97,100.53c-6.07,12.14-38.67-27.48-38.99-17.9-.32,9.59,85.97,120.8,67.75,121.44-18.22.64-84.69-102.59-86.93-97.79-2.24,4.79,20.45,45.7,4.47,40.91-15.98-4.79-89.25-95.78-89.25-95.78"/>
      </g>
      <g>
        <path class="cls-4" d="M67.02,115.69c-3.05,0-5.86-1.67-7.32-4.36l-13.25-24.35c-.42-.76-1.21-1.24-2.08-1.24-.15,0-.29.01-.44.04l-27.26,5.08c-.51.09-1.03.14-1.55.14-3.33,0-6.33-1.99-7.66-5.06-1.32-3.07-.69-6.61,1.61-9.04l19.06-20.13c.71-.75.85-1.85.36-2.76l-13.25-24.35c-1.42-2.62-1.37-5.7.15-8.25,1.5-2.53,4.25-4.1,7.18-4.1,1.25,0,2.46.27,3.6.82l25.04,11.91c.32.15.66.23,1.01.23.65,0,1.28-.27,1.72-.74l19.06-20.13c1.6-1.69,3.75-2.61,6.05-2.61s4.71,1.04,6.31,2.86c1.58,1.8,2.3,4.2,1.99,6.58l-3.59,27.49c-.13,1.02.4,2,1.33,2.44l25.04,11.91c3.28,1.56,5.16,5.03,4.69,8.63-.47,3.6-3.18,6.46-6.75,7.13l-27.26,5.08c-1.01.19-1.78,1-1.91,2.02l-3.59,27.49c-.54,4.15-4.11,7.27-8.29,7.27Z"/>
        <path class="cls-1" d="M79.06,13.57c.87,0,1.71.74,1.57,1.78l-3.59,27.49c-.51,3.93,1.56,7.75,5.14,9.45l25.04,11.91c1.37.65,1.11,2.68-.39,2.96l-27.26,5.08c-3.9.73-6.88,3.88-7.4,7.81l-3.59,27.49c-.11.87-.84,1.37-1.57,1.37-.53,0-1.06-.26-1.36-.82l-13.25-24.35c-1.62-2.98-4.73-4.78-8.04-4.78-.56,0-1.12.05-1.68.16l-27.26,5.08c-.1.02-.21.03-.31.03-1.31,0-2.09-1.62-1.12-2.65l19.06-20.13c2.73-2.88,3.29-7.19,1.39-10.67l-13.25-24.35c-.6-1.11.27-2.32,1.37-2.32.22,0,.45.05.68.16l25.04,11.91c1.26.6,2.6.89,3.93.89,2.46,0,4.88-.99,6.65-2.86l19.06-20.13c.33-.34.73-.49,1.12-.49M79.06,0h0c-4.13,0-8.13,1.73-10.98,4.74l-16.86,17.8-22.14-10.53c-2.03-.96-4.28-1.47-6.51-1.47-5.31,0-10.29,2.84-13.01,7.42-2.71,4.56-2.81,10.29-.27,14.96l11.72,21.53-16.86,17.8C-.01,76.64-1.16,83.07,1.23,88.63c2.4,5.57,7.85,9.16,13.89,9.16.93,0,1.87-.09,2.79-.26l24.1-4.49,11.72,21.53c2.65,4.87,7.74,7.9,13.28,7.9,7.58,0,14.04-5.67,15.02-13.18l3.17-24.3,24.1-4.49c6.47-1.2,11.38-6.4,12.24-12.92.85-6.52-2.57-12.81-8.51-15.63l-22.14-10.53,3.17-24.31c.56-4.32-.75-8.67-3.62-11.94-2.88-3.28-7.04-5.17-11.41-5.17h0Z"/>
        <path class="cls-2" d="M79.06,13.57c.87,0,1.7.74,1.57,1.78l-3.59,27.49c-.51,3.93,1.56,7.75,5.14,9.45l25.04,11.91c1.37.65,1.11,2.68-.39,2.96l-27.26,5.08c-3.9.73-6.88,3.88-7.4,7.81l-3.59,27.49c-.11.87-.84,1.37-1.57,1.37-.53,0-1.06-.26-1.36-.82l-13.25-24.35c-1.62-2.98-4.73-4.78-8.04-4.78-.56,0-1.12.05-1.68.16l-27.26,5.08c-.1.02-.21.03-.31.03-1.31,0-2.09-1.62-1.12-2.65l19.06-20.13c2.73-2.88,3.29-7.19,1.39-10.67l-13.25-24.35c-.6-1.11.27-2.32,1.37-2.32.22,0,.45.05.68.16l25.04,11.91c1.26.6,2.6.89,3.93.89,2.46,0,4.88-.99,6.65-2.86l19.06-20.13c.33-.34.73-.49,1.12-.49M79.06,7.96h0c-1.98,0-3.83.8-5.2,2.25l-19.06,20.13c-.67.7-1.6,1.11-2.57,1.11-.53,0-1.04-.12-1.52-.34l-25.04-11.91c-.98-.47-2.02-.7-3.09-.7-2.51,0-4.88,1.35-6.17,3.53-1.3,2.19-1.35,4.84-.12,7.09l13.25,24.35c.74,1.35.52,3.01-.54,4.13l-19.06,20.13c-1.97,2.08-2.52,5.13-1.39,7.77,1.14,2.64,3.72,4.35,6.58,4.35.45,0,.89-.04,1.34-.12l27.25-5.08c.22-.04.43-.06.65-.06,1.3,0,2.49.71,3.11,1.85l13.25,24.35c1.26,2.31,3.67,3.75,6.29,3.75,3.6,0,6.67-2.69,7.13-6.25l3.59-27.49c.2-1.53,1.35-2.74,2.86-3.02l27.25-5.08c3.07-.57,5.4-3.03,5.8-6.13.4-3.09-1.22-6.07-4.04-7.41l-25.04-11.91c-1.39-.66-2.19-2.13-1.99-3.65l3.59-27.49c.27-2.05-.35-4.11-1.71-5.66-1.37-1.56-3.35-2.46-5.42-2.46h0Z"/>
      </g>
    </g>
  </g>
</svg>